<?xml version="1.0" encoding="utf-8"?>
<!-- Generator: Adobe Illustrator 23.0.5, SVG Export Plug-In . SVG Version: 6.00 Build 0)  -->
<svg version="1.1" id="Layer_1" xmlns="http://www.w3.org/2000/svg" xmlns:xlink="http://www.w3.org/1999/xlink" x="0px" y="0px"
	 viewBox="0 0 90 90" style="enable-background:new 0 0 90 90;" xml:space="preserve">
<style type="text/css">
	.st0{fill-rule:evenodd;clip-rule:evenodd;fill:#B53234;}
	.st1{opacity:0.8;fill-rule:evenodd;clip-rule:evenodd;fill:#B53234;enable-background:new    ;}
	.st2{opacity:0.2;fill-rule:evenodd;clip-rule:evenodd;fill:#B53234;enable-background:new    ;}
</style>
<g>
	<g>
		<path class="st0" d="M32.7,27c0-0.1,0.6-3.3,0.7-3.3c1.1-0.8,2.6-0.4,3.9-0.3c1,0.1,1.8,5.9-3.7,4.2C33.4,27.6,32.8,27.1,32.7,27z
			"/>
		<path class="st0" d="M35.8,27.9c2.9-0.4,2.2-4.4,1.4-4.5c-0.3,0-0.5-0.1-0.8-0.1C35.7,24.7,35.5,26.7,35.8,27.9z"/>
	</g>
	<g>
		<path class="st0" d="M44.1,23.2c-0.4-0.1-2.9-0.7-3.2-0.6c-5.3,2.8-0.9,7.4,1.4,5.3c0.8-0.7,2.8-0.2,2.1-3.9
			C44.3,23.7,44.1,23.2,44.1,23.2z"/>
		<path class="st0" d="M41.4,22.7c-0.2,0-0.4,0-0.5,0c-5.2,2.8-1.1,7.2,1.3,5.4c0.1-0.7,0.2-1.3,0.2-1.5
			C42.8,23.7,42.5,24,41.4,22.7z"/>
		<path class="st0" d="M42.5,25.1c0.3-0.4,1-1.2,1.6-1.8c0-0.1-0.1-0.1-0.1-0.1c-0.3-0.1-1.9-0.5-2.7-0.6
			C42.2,23.7,42.6,23.8,42.5,25.1z"/>
	</g>
	<g>
		<path class="st0" d="M37.6,31.4c-0.7-0.9-1.6-4.4-3.1-3.3c-1.1,0.8-4.3-0.2-2.6,3.5c0.6,1.3,1.4,3.5,3,3.6c2.3,0.2,4.2-1.6,3-3.5
			C37.7,31.4,37.7,31.7,37.6,31.4z"/>
		<path class="st0" d="M31.4,30.5c0.1,0.3,0.2,0.7,0.4,1.1c0.6,1.3,1.4,3.5,3,3.6c0.8,0.1,1.5-0.1,2-0.4c-0.2-0.5-0.6-1.1-1.1-1.8
			C34.8,31.5,33.4,28.8,31.4,30.5z"/>
	</g>
	<g>
		<path class="st0" d="M30.6,27.9c-0.4,0.2-4.1-0.8-2.2,2.9c0.6,1.1,0.2,2.1,2.4,0.5C31.9,30.5,32.4,28.2,30.6,27.9L30.6,27.9z"/>
		<path class="st0" d="M27.9,28.8c-0.1,0.4,0.1,1,0.5,1.9c0.6,1.1,0.2,2.1,2.4,0.5c0.2-0.2,0.4-0.4,0.6-0.6
			C30.7,29.9,29,29.2,27.9,28.8z"/>
	</g>
	<path class="st0" d="M31.1,39c-1.5,0.3-3.5-1.5-3.3,1.6c0,1.2-0.6,2.1,2.4,2.1c2.2,0,1.1-1.5,1.2-3.2C31.4,39.3,31.2,38.9,31.1,39z
		"/>
	<path class="st0" d="M39.5,69.3c-1.5,0.3-3.5-1.5-3.3,1.6c0,1.2-0.6,2.1,2.4,2.1c2.2,0,1.1-1.5,1.2-3.2
		C39.8,69.6,39.6,69.3,39.5,69.3z"/>
	<path class="st0" d="M49.6,37.9c-0.3-1.6,0.4-1.4-2.1-2.4c-0.9-0.3-1.8,4.1,0.1,4.4C49.4,40.2,49.6,37.9,49.6,37.9z"/>
	<path class="st0" d="M11.2,69.8c-1.6,0.1-1.4-0.5-2.6,1.9c-0.4,0.9,3.9,2.1,4.4,0.3C13.5,70.2,11.2,69.8,11.2,69.8z"/>
	<g>
		<path class="st0" d="M51,31.5c-1.6,0.7-2.8,0.7-2.5,3.3c0.2,1.3,4.7,2,4.8-0.9c0-0.4-1.2-0.7-1.7-2.1C51.5,31.8,51.1,31.5,51,31.5
			z"/>
		<path class="st0" d="M48.5,33.1c-0.1,0.4-0.2,0.9-0.1,1.7c0.2,1.3,4.7,2,4.8-0.9c0-0.1,0-0.1-0.1-0.2C51.8,34.1,49,34.3,48.5,33.1
			z"/>
		<path class="st0" d="M51,31.5c-0.3,0.1-0.6,0.2-0.8,0.3c0.5,0.8,1.8,1.5,2.6,1.6c-0.4-0.3-0.9-0.8-1.2-1.6
			C51.5,31.8,51.1,31.5,51,31.5z"/>
	</g>
	<path class="st0" d="M64.2,40c2.2-1.3,0.2-5.9-2.5-2.1C61.3,38.4,63.9,40.1,64.2,40z"/>
	<g>
		<path class="st0" d="M60,42.1c-0.2-1.3,0.2-2.2-1.4-3.7c-0.6-0.5-7,0.8-2.9,3.7C58.2,44,60,42.2,60,42.1z"/>
		<path class="st0" d="M56.2,38.7c-1.6,0.5-3,1.7-0.5,3.5c1.7,1.2,3.1,0.8,3.8,0.4v-0.1C59.6,40.4,57.3,39.5,56.2,38.7z"/>
		<path class="st0" d="M59.5,39.6c-0.2-0.4-0.5-0.7-1-1.2c-0.2-0.2-1.3-0.1-2.4,0.2c0.5,0.4,1.3,0.9,2,1.4
			C58.7,39.8,59.2,39.7,59.5,39.6z"/>
	</g>
	<g>
		<path class="st0" d="M49.6,30.6c-0.2-1.3,0.2-2.2-1.4-3.7c-0.6-0.5-7,0.8-2.9,3.7C47.9,32.4,49.6,30.6,49.6,30.6z"/>
		<path class="st0" d="M45.8,27.1c-1.6,0.5-3,1.7-0.5,3.5c1.7,1.2,3.1,0.8,3.8,0.4v-0.1C49.2,28.9,46.9,28,45.8,27.1z"/>
		<path class="st0" d="M49.2,28.1c-0.2-0.4-0.5-0.7-1-1.2c-0.2-0.2-1.3-0.1-2.4,0.2c0.5,0.4,1.3,0.9,2,1.4
			C48.3,28.2,48.8,28.1,49.2,28.1z"/>
	</g>
	<g>
		<path class="st0" d="M62.8,41.2c-1.4,0.3-3.1,2.6-3.4,4.1c-0.2,1.2,1.9,5.8,4.3,4.5c2.7-1.4,2.7-2.2,3.1-5
			c0.4-3.1-1.4-1.8-3.7-3.4C63.1,41.2,62.9,41.2,62.8,41.2z"/>
		<path class="st0" d="M62.8,41.2c-0.5,0.1-1.1,0.5-1.6,1c1.5,0.4,2.2,1.8,3.9,2c0.8,0.1,1.3,0.8,1.6,1.4c0-0.3,0.1-0.6,0.1-0.9
			c0.4-3.1-1.4-1.8-3.7-3.4C63.1,41.2,62.9,41.2,62.8,41.2z"/>
		<path class="st0" d="M60.1,43.7c-0.3,0.5-0.5,1.1-0.6,1.5c-0.2,1.2,1.9,5.8,4.3,4.5c1.9-1,2.5-1.7,2.8-3c-0.2-0.3-0.4-0.5-0.6-0.8
			C64.8,44.6,61.8,45.5,60.1,43.7z"/>
		<path class="st0" d="M60,47.3c1-0.8,1.7-2,1.6-2.6c-0.4-0.2-0.9-0.4-1.3-0.7c-0.1,0-0.2,0-0.3-0.1c-0.3,0.5-0.5,1-0.6,1.4
			C59.4,45.6,59.6,46.4,60,47.3z"/>
		<path class="st0" d="M65,49c0.2-1.2,0.5-2.7-1.9-3c-0.5-0.1-1.9,1.5-2.5,2.5c0.8,1.1,1.9,2,3.2,1.3C64.3,49.4,64.7,49.2,65,49z"/>
	</g>
	<g>
		<path class="st0" d="M72.1,44.8c-1.7,0.2-4.4,1-3.5,3.2c0.9,2.1,0.7,2,2.6,3.1c0.2,0.1,7.9-0.7,4.3-3.4c-0.5-0.4-3.1-3-3.3-3
			C72.2,44.8,72.2,44.8,72.1,44.8z"/>
		<path class="st0" d="M68.7,48.3c0.7,1.8,0.7,1.7,2.5,2.9c0.1,0.1,3.6-0.2,4.8-1.2c-0.4-0.4-0.8-0.8-1-1
			C73.7,46.6,70.6,47.2,68.7,48.3z"/>
		<path class="st0" d="M72.1,44.8c-0.6,0.1-1.3,0.2-2,0.5c0,0.7,1,0.7,2.8,2.2c0.6,0.5,1.6,1.7,2.7,2.6c0.9-0.5,1.2-1.3-0.1-2.3
			C75,47.4,72.4,44.8,72.1,44.8C72.2,44.8,72.2,44.8,72.1,44.8z"/>
		<path class="st0" d="M73.9,50.8c1.9-0.5,3.8-1.4,1.7-3c-0.1-0.1-0.3-0.2-0.5-0.4C74.8,48.9,74.1,50.1,73.9,50.8z"/>
	</g>
	<g>
		<path class="st0" d="M82.4,57.2c-1-2.5-2-3.4-4.3-1.4c-0.5,0.5-0.6,4.7,2.9,3.5C82.2,58.9,82.6,57.5,82.4,57.2z"/>
		<path class="st0" d="M78.7,55.3c-0.2,0.1-0.4,0.3-0.6,0.4c-0.5,0.5-0.6,4.7,2.9,3.5c0.2-0.1,0.3-0.1,0.5-0.2
			C81.5,57.6,79.6,56.2,78.7,55.3z"/>
	</g>
	<g>
		<path class="st0" d="M57.2,65c-1-2.5-2-3.4-4.3-1.4c-0.5,0.5-0.6,4.7,2.9,3.5C57,66.7,57.3,65.4,57.2,65z"/>
		<path class="st0" d="M53.5,63.2c-0.2,0.1-0.4,0.3-0.6,0.4c-0.5,0.5-0.6,4.7,2.9,3.5c0.2-0.1,0.3-0.1,0.5-0.2
			C56.3,65.4,54.3,64,53.5,63.2z"/>
	</g>
	<g>
		<path class="st0" d="M11.8,62c-0.6-1.4-1.1-1.9-2.4-0.8c-0.3,0.3-0.3,2.6,1.6,2C11.7,63,11.9,62.2,11.8,62z"/>
		<path class="st0" d="M9.7,61c-0.1,0.1-0.2,0.2-0.3,0.3c-0.3,0.3-0.3,2.6,1.6,2c0.1,0,0.2-0.1,0.3-0.1C11.3,62.2,10.2,61.5,9.7,61z
			"/>
	</g>
	<g>
		<path class="st0" d="M66.6,68.4c-1-2.5-2-3.4-4.3-1.4c-0.5,0.5-0.6,4.7,2.9,3.5C66.5,70.1,66.8,68.7,66.6,68.4z"/>
		<path class="st0" d="M63,66.5c-0.2,0.1-0.4,0.3-0.6,0.4c-0.5,0.5-0.6,4.7,2.9,3.5c0.2-0.1,0.3-0.1,0.5-0.2
			C65.8,68.8,63.8,67.4,63,66.5z"/>
	</g>
	<g>
		<path class="st0" d="M80.6,61.1c-1.5,0.3-5.7-0.1-3.7,3.6c1.1,1.9,4.4,1.4,5.8,0.4c1.5-1.1-0.9-3.7-1.8-3.9
			C81,61.1,80.7,61,80.6,61.1z"/>
		<path class="st0" d="M80.3,61.1c-1.7,0.2-5.2,0.1-3.4,3.5c0.3,0.5,0.8,0.9,1.3,1.1l0.1-0.1C80.1,63.8,79.7,62.3,80.3,61.1z"/>
	</g>
	<path class="st0" d="M71.4,60.9c-0.1,0.5,0.5-1,1.3-1.1c1.4-0.1,3.1,0.9,3.2,2.3c0.3,2.2-1.7,0.8-2.8,1.6c-0.3,0.2-2.2-0.2-1.8-1.9
		C71.3,61.7,71.4,61,71.4,60.9z"/>
	<g>
		<path class="st0" d="M67,39.1c0.6-0.8,5.6,0.7,5.6,1.5c0,1.6,0.5,1.8-1.6,2.6c-2.7,1.1-6.2-0.6-4.4-3.5
			C66.6,39.8,67.2,38.9,67,39.1z"/>
		<path class="st0" d="M72.2,40.1c0.2,0.2,0.4,0.3,0.4,0.5c0,1.6,0.5,1.8-1.6,2.6c-0.1,0-0.2,0.1-0.3,0.1
			C70.4,42.4,71.2,40.9,72.2,40.1z"/>
		<path class="st0" d="M72.1,42.7c-0.2,0.2-0.6,0.3-1.1,0.5c-2.6,1-5.9-0.5-4.6-3.1c0.6-0.1,1.4-0.1,1.9,0.1
			C69.2,40.6,71.9,41.6,72.1,42.7z"/>
	</g>
	<g>
		<path class="st0" d="M41,16.7c0.8-1.2,8.1,1,8.1,2.2c0,2.3,0.7,2.6-2.3,3.8c-3.9,1.6-8.9-0.9-6.4-5C40.4,17.6,41.2,16.4,41,16.7z"
			/>
		<path class="st0" d="M48.5,18.2c0.4,0.2,0.6,0.5,0.6,0.7c0,2.3,0.7,2.6-2.3,3.8c-0.1,0.1-0.3,0.1-0.4,0.1
			C45.8,21.4,47,19.2,48.5,18.2z"/>
		<path class="st0" d="M48.4,21.9c-0.4,0.2-0.9,0.5-1.6,0.7c-3.7,1.5-8.4-0.7-6.7-4.5c0.9-0.2,2.1-0.1,2.7,0.1
			C44.1,18.8,48,20.3,48.4,21.9z"/>
	</g>
	<g>
		<path class="st0" d="M54.3,32.3c1.5-2.2,1.9-3.3,4.1-2.2c0.9,0.4,1.2,1,3,1.8c2.5,1.1,0.5,3.1,0.3,4.9c-0.2,2.5-2.9,1.3-4.4,1.9
			c-2.7,1.1-4.2-4.4-2.9-6.2C54.4,32.4,54.3,32.3,54.3,32.3z"/>
		<path class="st0" d="M62.6,33.1c0.2,1.1-0.8,2.4-0.9,3.6c-0.1,1-0.6,1.4-1.3,1.6c-0.5-1-0.6-2.4-0.6-2.4
			C60.6,33.9,61.1,33.5,62.6,33.1z"/>
		<path class="st0" d="M61.1,31.7c-1.5-0.7-1.9-1.2-2.7-1.6c-1.4-0.7-2-0.5-2.7,0.3c0.1,1.4,0.6,1.1,3.2,1.5
			C59.8,31.9,60.5,31.8,61.1,31.7z"/>
		<path class="st0" d="M53.9,34.3c1.1-0.6,2.1-1.6,2-3.1c-0.2-0.2-0.2-0.4-0.3-0.9C54.6,31.3,53.6,32.7,53.9,34.3z"/>
		<path class="st0" d="M60.7,38.2c-1,0.4-2.4,0-3.4,0.4c-2.2,0.9-3.6-2.7-3.3-5c1.6,0.4,4.3,1.2,4.9,1.7
			C59.3,35.6,60.3,37,60.7,38.2z"/>
	</g>
	<g>
		<path class="st0" d="M50.1,22.9c-0.9,0.9-2,2.8-0.9,3.9c0.8,0.7,5.4,2.6,6,0.6c0.5-1.6,0.5-4-1.9-3.7
			C52.3,23.7,50.1,22.9,50.1,22.9z"/>
		<path class="st0" d="M50.1,22.9c-0.7,0.6-1.4,1.8-1.4,2.8c3.5,0.7,2.5-0.8,4.8-1.1c0.4,0,1.1,0.1,1.8,0.1c-0.3-0.7-0.9-1.2-2-1.1
			C52.3,23.7,50.1,22.9,50.1,22.9z"/>
		<path class="st0" d="M48.7,25.5c0,0.5,0.1,1,0.5,1.3c0.8,0.7,5.4,2.6,6,0.6c0.1-0.5,0.2-1,0.3-1.5C54.3,26.2,51,26,50,25.5
			C49.7,25.4,49.2,25.4,48.7,25.5z"/>
	</g>
	<g>
		<path class="st0" d="M42.3,29.1c-1.7,0.5-2.7,0.2-2.7,2.7c0,3.4-1.3,6.1,2,8.8c2.7,2.1,3.4-2.6,3.4-4.4c0-0.6,0.4-1,0-2
			C44.7,33.4,42.9,28.9,42.3,29.1z"/>
		<path class="st0" d="M41.6,29.3c-1.3,0.3-2,0.4-2,2.6c0,0.1,0,0.2,0,0.3c0.5,0.4,1,0.6,1.7,0.6C41.6,32.7,41.5,30.7,41.6,29.3z"/>
		<path class="st0" d="M39.8,30.4c-0.1,0.3-0.2,0.8-0.2,1.4c0,3.4-1.3,6.1,2,8.8c1.6,1.2,2.5,0.1,3-1.4c-0.3-1.4-0.9-2.7-1.1-3.6
			C43.4,34.9,41.1,32,39.8,30.4z"/>
		<path class="st0" d="M39.4,35c-0.2,2.1,0,3.9,2.2,5.6c1.6,1.2,2.5,0.1,3-1.4c-0.2-1.3-0.8-2.6-1-3.4c-0.5-0.2-1-0.4-1.6-0.8
			C40,33.6,40.1,34.2,39.4,35z"/>
		<path class="st0" d="M39.5,37.3c0.2,1.1,0.8,2.2,2.2,3.3c1.5,1.1,2.4,0.3,2.9-1.1c-0.5-0.8-1.2-1.6-1.5-2.3
			C42.2,35.2,40.7,36.2,39.5,37.3z"/>
	</g>
	<g>
		<g>
			<g>
				<path class="st0" d="M35.6,36.7c-0.6,0.3-0.9,0.2-1,0.9C33.9,38,32.9,41.7,35,42c1.3,0.2,3.3,0.9,4.3,1.1
					c0.3,0.7,6.7-0.4,1.4-5.2C40.2,37.5,35.6,36.7,35.6,36.7z"/>
				<path class="st0" d="M41.6,38.8c-0.2-0.3-0.5-0.6-0.9-0.9c-0.4-0.4-4.4-1.1-5-1.2C36.9,38,40.1,38.9,41.6,38.8z"/>
				<path class="st0" d="M33.8,39.3c-0.2,1.2-0.1,2.5,1.1,2.7c1.3,0.2,3.3,0.9,4.3,1.1c0.2,0.4,2.4,0.2,3.2-1
					C40.8,40.1,35.7,38.6,33.8,39.3z"/>
			</g>
			<path class="st1" d="M38.1,42.8c0.4,0.1,0.8,0.2,1.1,0.3c0.2,0.4,2.4,0.2,3.2-1c-0.3-0.4-0.8-0.8-1.4-1.2
				C40.2,41.3,39.1,42.1,38.1,42.8z"/>
		</g>
		<path class="st0" d="M42.2,42.4c0.8-0.7,0.9-1.9-0.8-3.8c-1.1,0.5-2.6,1.7-0.2,3.9C41.3,42.5,41.8,42.6,42.2,42.4z"/>
	</g>
	<g>
		<path class="st0" d="M44.9,45.2c-0.3-0.1-0.6-0.5-0.7-0.8c-0.4-1.7,0.2-5.1,2.6-4.6c0.5,0.1,6.5-2.3,6.1,4.1
			c-0.2,3.1-4.9,4.8-7.8,1.4C45.1,45.2,44.9,45.2,44.9,45.2z"/>
		<path class="st0" d="M44.9,45.2c-0.3-0.1-0.6-0.5-0.7-0.8c-0.3-1.2-0.1-3.1,0.8-4.1c0.9,0.5,1.9,1.3,1.9,1.5
			c0,0.1-0.6,2.8-1.1,4.2c-0.3-0.2-0.5-0.5-0.8-0.8C45.1,45.2,44.9,45.2,44.9,45.2z"/>
		<path class="st0" d="M44.6,40.9c0.4-0.8,1.1-1.4,2.1-1.2c0.4,0.1,4.7-1.6,5.9,1.7C47.9,41.4,49.6,45.3,44.6,40.9z"/>
		<path class="st0" d="M51,41.6c-1.4,0.4-2,1.2-2.7,1.3c-1.3,2.5-0.7,3-0.4,4c2.3,0.6,4.6-0.7,5-2.7c0-0.2,0.1-0.3,0.1-0.5
			c0.1-1-0.1-1.8-0.3-2.4C52,41.5,51.5,41.5,51,41.6z"/>
	</g>
	<g>
		<path class="st0" d="M49.2,47c-0.9-0.5-2.1-0.1-2.3,1.1c-0.4,2.3,0.1,3.2,2.6,2.8c1-0.2,1.9-1.5,0.9-2.7
			C49.7,47.4,50,47.5,49.2,47z"/>
		<path class="st0" d="M46.7,49c-0.1,1.7,0.5,2.3,2.7,1.9c1-0.2,1.9-1.5,0.9-2.7c-0.1-0.2-0.2-0.3-0.3-0.4c-0.4,0.7-0.9,1.9-2.1,1.8
			C47.6,49.6,47.1,49.3,46.7,49z"/>
	</g>
	<g>
		<path class="st0" d="M22.6,56.1c-0.9-0.5-2.1-0.1-2.3,1.1c-0.4,2.3,0.1,3.2,2.6,2.8c1-0.2,1.9-1.5,0.9-2.7
			C23.2,56.6,23.5,56.6,22.6,56.1z"/>
		<path class="st0" d="M20.2,58.1c-0.1,1.7,0.5,2.3,2.7,1.9c1-0.2,1.9-1.5,0.9-2.7c-0.1-0.2-0.2-0.3-0.3-0.4
			c-0.4,0.7-0.9,1.9-2.1,1.8C21,58.7,20.6,58.4,20.2,58.1z"/>
	</g>
	<g>
		<path class="st0" d="M58.2,68.6c-0.9-0.5-2.1-0.1-2.3,1.1c-0.4,2.3,0.1,3.2,2.6,2.8c1-0.2,1.9-1.5,0.9-2.7
			C58.8,69.1,59.1,69.1,58.2,68.6z"/>
		<path class="st0" d="M55.8,70.6c-0.1,1.7,0.5,2.3,2.7,1.9c1-0.2,1.9-1.5,0.9-2.7c-0.1-0.2-0.2-0.3-0.3-0.4
			c-0.4,0.7-0.9,1.9-2.1,1.8C56.7,71.2,56.2,70.9,55.8,70.6z"/>
	</g>
	<g>
		<path class="st0" d="M28.5,69.6c-0.9-0.5-2.1-0.1-2.3,1.1c-0.4,2.3,0.1,3.2,2.6,2.8c1-0.2,1.9-1.5,0.9-2.7
			C29,70.1,29.3,70.1,28.5,69.6z"/>
		<path class="st0" d="M26,71.6c-0.1,1.7,0.5,2.3,2.7,1.9c1-0.2,1.9-1.5,0.9-2.7c-0.1-0.2-0.2-0.3-0.3-0.4c-0.4,0.7-0.9,1.9-2.1,1.8
			C26.9,72.2,26.4,71.9,26,71.6z"/>
	</g>
	<g>
		<path class="st0" d="M54.7,49.1c-0.4-1.2-1.4-1.4,0.5-2.6c1.5-1,1.4-2.1,2.6-0.9c0.8,0.8,2.3,0.1,2.5,2c0.2,2.1-0.6,3.4-3,3.1
			C56.4,50.6,55,50.1,54.7,49.1z"/>
		<path class="st0" d="M54.7,49.1c-0.4-1.2-1.4-1.4,0.5-2.6c0.1-0.1,0.3-0.2,0.4-0.3c-0.1,2.2,1.1,2.3,1.1,4.3
			C55.8,50.3,54.9,49.8,54.7,49.1z"/>
		<path class="st0" d="M56.8,45.1c0.2,0,0.5,0.1,0.9,0.5c0.8,0.8,2.3,0.1,2.5,2c0.2,2.1-0.6,3.4-3,3.1h-0.1
			c-0.2-0.8-0.3-1.7-0.2-1.9C57.3,48,56.7,46.3,56.8,45.1z"/>
	</g>
	<g>
		<path class="st0" d="M68.9,59.5c1.5,1.2,3.2,2.2,1.9,3.8c-0.6,0.7-2,1.4-2.9,1.1c-0.9-0.3-3.8-1.9-3.2-3.4
			C65.4,59.5,67.4,58.3,68.9,59.5z"/>
		<path class="st0" d="M68.9,59.5c0.2,0.2,0.4,0.3,0.7,0.5c-1.1,1.8-1.1,2.6-3.4,3.4c-1-0.7-1.8-1.6-1.5-2.5
			C65.4,59.5,67.4,58.3,68.9,59.5z"/>
		<path class="st0" d="M71.2,61.8c0.2,0.5,0.1,0.9-0.4,1.5c-0.6,0.7-2,1.4-2.9,1.1c-0.4-0.1-1-0.5-1.7-0.9c0.4-0.9,1.7-1,2.7-1.4
			C69.9,61.6,70.6,61.7,71.2,61.8z"/>
	</g>
	<g>
		<path class="st0" d="M86.4,66.1c1.5,1.2,3.2,2.2,1.9,3.8c-0.6,0.7-2,1.4-2.9,1.1s-3.8-1.9-3.2-3.4C82.9,66.1,84.9,64.9,86.4,66.1z
			"/>
		<path class="st0" d="M86.4,66.1c0.2,0.2,0.4,0.3,0.7,0.5C86,68.5,86,69.2,83.7,70c-1-0.7-1.8-1.6-1.5-2.5
			C82.9,66.1,84.9,64.9,86.4,66.1z"/>
		<path class="st0" d="M88.7,68.4c0.2,0.5,0.1,0.9-0.4,1.5c-0.6,0.7-2,1.4-2.9,1.1c-0.4-0.1-1-0.5-1.7-0.9c0.4-0.9,1.7-1,2.7-1.4
			C87.4,68.1,88.1,68.2,88.7,68.4z"/>
	</g>
	<g>
		<path class="st0" d="M64.6,49.4c-0.2-0.1-4.4,0.1-3.7,1.9c1,2.5,0.3,4.4,3.9,5.5c1,0.3,1.9,0.2,2.4-0.3c0.6-0.5,0.5-1.3,0.4-2.4
			c-0.7-5.2-1.2-2.9-2.5-4.1C65,49.8,64.6,49.4,64.6,49.4z"/>
		<path class="st0" d="M64.6,49.4c0,0-0.1,0-0.2,0C65.7,51,66.7,53,67,55c0.1,0.6,0.2,1,0.2,1.4c0.6-0.5,0.9-1.3,0.7-2.5
			c-0.6-5.2-1.5-3-2.8-4.1C65.1,49.7,64.6,49.4,64.6,49.4z"/>
	</g>
	<g>
		<path class="st0" d="M70.6,52.7c-0.8,0.7-0.9-0.5-2.6,1.4c-1.1,1.2-1.2,0.9,0,3.1c1.2,2.1,1.2,2,3.8,2.2c5.3,0.5,2.6-1.1,4.5-3.4
			c0.4-0.5-2.6-3.5-3.6-3.7C72.1,52.2,70.6,52.7,70.6,52.7z"/>
		<path class="st0" d="M70.6,52.7c-0.2,0.2-0.3,0.2-0.4,0.3c0.1,0.2,0.2,0.4,0.4,0.7c2.3,2.9,2.1,0.6,2.7-1.1
			c-0.2-0.1-0.5-0.2-0.6-0.3C72.1,52.2,70.6,52.7,70.6,52.7z"/>
		<path class="st0" d="M72.1,59.4c4.7,0.4,2.3-1.2,4.1-3.4c0,0,0.1-0.1,0-0.2c-0.7,0.2-1.6,0.5-1.9,1C74.1,57,72.5,58.3,72.1,59.4z"
			/>
		<path class="st0" d="M70.6,52.7c-0.8,0.7-0.9-0.5-2.6,1.4c-1.1,1.2-1.2,0.9,0,3.1c1.2,2.1,1.2,2,3.8,2.2c0.1,0,0.2,0,0.3,0
			c1.3-1.6,1.6-4,0.6-5c-0.8-0.8-1.1-1.4-1.4-1.9C70.9,52.6,70.6,52.7,70.6,52.7z"/>
	</g>
	<g>
		<path class="st0" d="M55.8,53.1c2-1.6,1.4-3.6,3.6-2.1c1.7,1.1,3.7-0.9,3.2,2.9c-0.2,1.6,0.1,2.6-1.9,3.8c-1.9,1.1-5.1,1.4-6-1.3
			c-0.5-1.5-0.8-2.6,0.9-3.3C55.6,53,56,52.9,55.8,53.1z"/>
		<path class="st0" d="M55.8,53.1c1.2-1,1.5-2.1,2-2.5c0.6,2.7,3.5,3.6-2.4,7c-0.3-0.3-0.5-0.7-0.7-1.2c-0.5-1.5-0.8-2.6,0.9-3.3
			C55.6,53,56,52.9,55.8,53.1z"/>
		<path class="st0" d="M62.6,52c0.1,0.4,0.2,0.9,0.1,1.9c-0.2,1.6,0.1,2.6-1.9,3.8c-1.2,0.7-2.9,1.1-4.2,0.6
			c-0.7-1.3-0.7-2.8,0.4-3.6c1.3-0.9,2.4-4,3.9-2.9C61.2,52.1,61.9,52,62.6,52z"/>
	</g>
	<g>
		<path class="st0" d="M52.4,49.4c-1.5-3.9-2.2-4.8,2.3-5.3c1.9-0.2,3.7,0.2,4.2,2.2s-1.6,5.5-4.4,5.6C52.3,52,51.9,51.6,52.4,49.4
			C52.3,49.3,52.4,49.4,52.4,49.4z"/>
		<path class="st0" d="M58.4,45.2c0.2,0.3,0.4,0.6,0.4,1c0.2,0.9-0.1,2-0.7,3C57.6,47.3,57.7,46.4,58.4,45.2z"/>
		<path class="st0" d="M51.9,48.1c-1.1-2.8-1.1-3.6,2.8-4.1c0.8-0.1,1.5-0.1,2.2,0.1c-1.1,1.6-2.9,3.6-4.4,3.9
			C52.2,48.1,52,48.1,51.9,48.1z"/>
		<path class="st0" d="M52.4,49.4c-0.4-1.1-0.8-1.9-1-2.6c2.3,0.5,3.6,0.1,6.3,0.4c0.5,0,0.8,0.7,0.8,1.5c-0.7,1.6-2.2,3.1-4,3.2
			C52.3,52,51.9,51.6,52.4,49.4C52.3,49.3,52.4,49.4,52.4,49.4z"/>
	</g>
	<g>
		<path class="st0" d="M49.6,58.7c0-3,1.4-1.5,2.8-3.7c0.6-1,4.7,1.1,2.9,5.1c-1.4,3-6.4,2.6-5.7-1.1C49.6,59,49.6,58.8,49.6,58.7z"
			/>
		<path class="st0" d="M49.7,57.8c0.3-1.7,1.4-0.9,2.6-2.5c0.7,1,2.4,1.6-1.7,2C50.5,57.2,50.1,57.5,49.7,57.8z"/>
		<path class="st0" d="M52.1,55.5c0.1-0.1,0.2-0.3,0.3-0.4c0.6-1,4.7,1.1,2.9,5.1c-0.6-0.8-1.2-1.9-1.4-2.4
			C53.2,56.3,52.6,55.8,52.1,55.5z"/>
	</g>
	<g>
		<path class="st0" d="M56.6,62.5c-0.4-0.9,1.8-3.5,2.1-5.3c0.1-0.3,2.3-0.6,3.2-1c0.7-0.3,4.7,2.3,3.1,4.2
			c-1.7,2.1,1.6,6.7-5.7,4.4c-2.4-0.7-2-0.3-2.5-2C56.8,62.8,56.6,62.6,56.6,62.5z"/>
		<path class="st0" d="M63.1,56.6c1.3,0.7,3.1,2.5,2,3.8c-1,1.2-0.3,3.4-1,4.4c-1.3-0.3-2.4-2-1.8-3.4C63,59.3,62.7,57.9,63.1,56.6z
			"/>
		<path class="st0" d="M64.5,57.7c0.8,0.8,1.3,1.8,0.5,2.7c-1,1.2-0.3,3.4-1,4.4c-1.3-0.3-2.4-2-1.8-3.4c0.2-0.4,0.3-0.8,0.3-1.1
			c0.1-0.2,0.2-0.4,0.3-0.6C63.3,58.7,63.9,58.1,64.5,57.7z"/>
		<path class="st0" d="M56.6,62.5c-0.3-0.7,1.2-2.8,1.9-4.5c0.5,2.4,3.1,3.8,1.1,6.9c-0.1,0-0.2-0.1-0.3-0.1c-2.4-0.7-2-0.3-2.5-2
			C56.8,62.8,56.6,62.6,56.6,62.5z"/>
		<path class="st0" d="M56.6,62.5c-0.1-0.2,0-0.5,0.1-0.9c1.5-0.7,5.3-1.5,6.1-1.4c0.6,0,1.7-0.4,2.6-0.8c0,0.4-0.1,0.7-0.4,1
			c-1.7,2.1,1.6,6.7-5.7,4.4c-2.4-0.7-2-0.3-2.5-2C56.8,62.8,56.6,62.6,56.6,62.5z"/>
	</g>
	<g>
		<path class="st0" d="M62.4,60.1c-1.6,0.5-3.6,0.7-2.3,2.8c0.4,0.7,3,0.6,3.9,0.6c0.8,0,2-2.3-0.7-3.4
			C63.3,60.1,62.5,60.1,62.4,60.1z"/>
		<path class="st0" d="M63.5,63.5c0.2,0,0.4,0,0.5,0c0.7,0,1.6-1.6,0.4-2.8C63.8,62.6,62.2,61.7,63.5,63.5z"/>
	</g>
	<g>
		<path class="st0" d="M28.5,66.9c-1,0.6-0.3,1.4,1.1,1.8c1.4,0.5,6.9,0.3,7.6-0.4c1.2-1.3,1.4-0.8-2.2-1.4
			c-0.9-0.1-0.6-0.6-3.8-0.2C30.8,66.8,28.6,66.9,28.5,66.9z"/>
		<path class="st0" d="M28.5,66.9C28.5,67,28.5,67,28.5,66.9c0.6,0.2,1.3,0.4,1.6,0.5c0.5,0.2,3.6,0.4,4.6,0c0.3-0.1,1.2-0.2,2-0.3
			c-0.4-0.1-1-0.1-1.7-0.2c-0.9-0.1-0.6-0.6-3.8-0.2C30.8,66.8,28.6,66.9,28.5,66.9z"/>
		<path class="st0" d="M29,68.6c0.2,0.1,0.4,0.2,0.6,0.2c1,0.3,3.7,0.4,5.6,0.1c-0.1-0.1-0.2-0.2-0.3-0.3c-1.6-1.7-1.6-0.9-3.4-1.2
			C30.2,67.3,29.7,68.1,29,68.6z"/>
	</g>
	<g>
		<path class="st0" d="M14.2,44.8c-0.7-0.1-0.7,0.6-0.1,1.3c0.5,0.8,3.3,2.7,3.9,2.6c1.1-0.2,1,0.1-0.6-1.5c-0.4-0.4,0-0.5-1.8-1.5
			C15.3,45.6,14.2,44.8,14.2,44.8z"/>
		<path class="st0" d="M14.2,44.8C14.1,44.8,14.1,44.8,14.2,44.8c0.2,0.3,0.5,0.7,0.6,0.9c0.2,0.3,1.6,1.5,2.2,1.7
			c0.2,0,0.7,0.4,1.1,0.6c-0.2-0.2-0.4-0.4-0.7-0.8c-0.4-0.4,0-0.5-1.8-1.5C15.3,45.6,14.2,44.8,14.2,44.8z"/>
		<path class="st0" d="M13.8,45.8c0.1,0.1,0.1,0.2,0.2,0.3c0.4,0.5,1.7,1.5,2.7,2.2c0-0.1,0-0.1,0-0.2c-0.2-1.4-0.5-1-1.2-1.8
			C14.8,45.6,14.3,45.8,13.8,45.8z"/>
	</g>
	<g>
		<path class="st0" d="M2.9,61.1c-0.5,0.6-0.2,1.4,0.6,1.8c0.8,0.5,3.8,0.3,4.1-0.4c0.7-1.3,0.8-0.8-1.2-1.4
			c-0.5-0.1-0.3-0.6-2.1-0.2C4.1,61,3,61,2.9,61.1z"/>
		<path class="st0" d="M2.9,61.1L2.9,61.1c0.3,0.2,0.7,0.4,0.9,0.5c0.3,0.2,2,0.4,2.5,0c0.2-0.1,0.7-0.2,1.1-0.3
			c-0.2-0.1-0.5-0.1-0.9-0.2C6,61,6.2,60.5,4.4,60.9C4.1,61,3,61,2.9,61.1z"/>
		<path class="st0" d="M3.2,62.7c0.1,0.1,0.2,0.2,0.3,0.2c0.5,0.3,2,0.4,3.1,0.1c0-0.1-0.1-0.2-0.1-0.3c-0.9-1.7-0.9-0.9-1.8-1.2
			C3.8,61.4,3.5,62.2,3.2,62.7z"/>
	</g>
	<g>
		<path class="st0" d="M14.5,69.8c-1,0.6-0.3,1.4,1.1,1.8c1.4,0.5,6.9,0.3,7.6-0.4c1.2-1.3,1.4-0.8-2.2-1.4
			c-0.9-0.1-0.6-0.6-3.8-0.2C16.7,69.7,14.6,69.7,14.5,69.8z"/>
		<path class="st0" d="M14.5,69.8C14.5,69.8,14.4,69.9,14.5,69.8c0.6,0.2,1.3,0.4,1.6,0.5c0.5,0.2,3.6,0.4,4.6,0
			c0.3-0.1,1.2-0.2,2-0.3c-0.4-0.1-1-0.1-1.7-0.2c-0.9-0.1-0.6-0.6-3.8-0.2C16.7,69.7,14.6,69.7,14.5,69.8z"/>
		<path class="st0" d="M15,71.4c0.2,0.1,0.4,0.2,0.6,0.2c1,0.3,3.7,0.4,5.6,0.1c-0.1-0.1-0.2-0.2-0.3-0.3c-1.6-1.7-1.6-0.9-3.4-1.2
			C16.2,70.2,15.6,70.9,15,71.4z"/>
	</g>
	<g>
		<path class="st0" d="M29.9,44.8c-0.3-1.3,1.1-5.5,4.3-3.3c1.7,1.2,8-1.1,5.3,5.3c-1,2.4-4.1,2.9-6.4,2.1c-1.9-0.7-3.5-1.5-3.2-3.8
			C29.9,45.2,29.9,45,29.9,44.8z"/>
		<path class="st2" d="M34.2,41.6c1.2,0.8,4.6,0,5.6,1.5c0.5,2.3-1.7,2.3-3.1,2.4C31.5,45.8,32.4,44.2,34.2,41.6z"/>
		<path class="st0" d="M29.9,44.8c-0.2-0.9,0.4-3,1.7-3.7c0.2,0.2,0.4,0.3,0.8,1c1.1,1.9-0.5,4.2-2.1,5c-0.3-0.5-0.5-1.2-0.4-2
			C29.9,45.2,29.9,45,29.9,44.8z"/>
	</g>
	<path class="st0" d="M41.5,54.7c-1.3-0.4-1.8-4.1-1-5.7c0.8-1.5,1.7-5.1,3.4-2.6c0.6,0.9,0.5,0,0.8,1.7c0.3,1.8,0.8,7.3-2.1,7.2
		C42.3,55.3,41.5,54.7,41.5,54.7z"/>
	<path class="st0" d="M51.2,71.5c-0.4,1.3-4.1,1.8-5.7,1c-1.5-0.8-5.1-1.7-2.6-3.4c0.9-0.6,0-0.5,1.7-0.8c1.8-0.3,7.3-0.8,7.2,2.1
		C51.8,70.8,51.2,71.5,51.2,71.5z"/>
	<g>
		<path class="st0" d="M43.7,60.8c-0.4-0.4-1-4.6-0.4-6c1.8-4.2,1.4-1.1,4.6-2.4c1.3-0.5,1.1,2.7,1.4,3.8c1.3,4.2,0.6,5.2-4,5.6
			C44.6,61.8,44.1,61.1,43.7,60.8z"/>
		<path class="st0" d="M48.4,52.4c0.7,0.5,0.6,2.9,0.9,3.8c1.3,4.2,0.6,5.2-4,5.6c-0.5,0-0.9-0.3-1.2-0.6c-0.3-1.4-0.1-3.1,0.7-4.7
			C45.5,54.9,47,53.6,48.4,52.4z"/>
		<path class="st0" d="M49.2,55.4c0,0.3,0.1,0.6,0.1,0.8c1.3,4.2,0.6,5.2-4,5.6c-0.5,0-0.9-0.3-1.2-0.6c-0.3-1.4-0.1-3.1,0.7-4.7
			c0.2-0.3,0.3-0.7,0.6-1c1.2-0.3,2.8-0.3,3.4-0.3C48.9,55.3,49,55.3,49.2,55.4z"/>
		<path class="st0" d="M43.7,60.8c-0.4-0.4-1-4.6-0.4-6c0.6-1.6,1-2.1,1.4-2.3c-0.9,2.8-0.3,2,0.1,5.1c0.1,0.8,0.4,2.8,0.1,4.1
			C44.4,61.5,44,61.1,43.7,60.8z"/>
	</g>
	<g>
		<path class="st0" d="M77.6,71.9c-0.4,0.3-4.7-0.1-5.9-1c-3.7-2.7-0.8-1.7-1.3-5.1c-0.2-1.4,2.9-0.4,4.1-0.5
			c4.4-0.3,5.2,0.5,4.5,5.2C78.9,71.2,78.1,71.5,77.6,71.9z"/>
		<path class="st0" d="M70.6,65.3c0.6-0.5,3,0.1,3.9,0c4.4-0.3,5.2,0.5,4.5,5.2c-0.1,0.5-0.5,0.8-0.8,1c-1.4,0-3.1-0.7-4.4-1.7
			C72.4,68.7,71.4,67,70.6,65.3z"/>
		<path class="st0" d="M73.7,65.3c0.3,0,0.6,0.1,0.8,0c4.4-0.3,5.2,0.5,4.5,5.2c-0.1,0.5-0.5,0.8-0.8,1c-1.4,0-3.1-0.7-4.4-1.7
			c-0.3-0.2-0.6-0.5-0.8-0.8c0-1.2,0.3-2.8,0.5-3.4C73.5,65.5,73.6,65.4,73.7,65.3z"/>
		<path class="st0" d="M77.6,71.9c-0.4,0.3-4.7-0.1-5.9-1c-1.4-1-1.8-1.5-1.9-1.9c2.5,1.5,1.9,0.8,5,1.1c0.8,0.1,2.8,0.2,4,0.8
			C78.6,71.4,78,71.6,77.6,71.9z"/>
	</g>
	<g>
		<path class="st0" d="M46,65.6c-1,0,1.2-4.8,2.2-4.2c0.9,0.5,3.7,1.9,3.7,2.9c0,2.7-1.6,2.4-4,2.1C47.4,66.3,45.9,65.6,46,65.6z"/>
		<path class="st0" d="M51.7,63.8c0.1,0.1,0.2,0.3,0.2,0.4c0,2.7-1.6,2.4-4,2.1c-0.2,0-0.6-0.2-1-0.4C48.6,65.1,49.8,62.4,51.7,63.8
			z"/>
	</g>
	<g>
		<path class="st0" d="M25.2,42.4c-3.1,0-1.7,2-1.3,3.6c0.2,1,3.5,0.9,4.5,1c2.2,0.1,1.1-4.6-0.9-4.5C27.3,42.6,25.4,42.4,25.2,42.4
			z"/>
		<path class="st0" d="M27.2,47c0.5,0,0.9,0,1.2,0c1.9,0.1,1.4-3.2,0-4.2c-0.5,0.9-0.7,1.5-0.9,2.6C27.4,45.9,27.3,46.5,27.2,47z"/>
	</g>
	<g>
		<path class="st0" d="M21.8,38.3c0-3-2.3-3.6,1.1-5.1c1.9-0.8,2.6-2.2,5.1-1.4c2.7,0.9,5.4,2,2.5,4.9c-2.4,2.4-2.4,3-6,2.7
			C24,39.4,21.8,38.9,21.8,38.3z"/>
		<path class="st0" d="M21.1,34.6c0.1-0.5,0.6-0.9,1.8-1.4c1.9-0.8,2.6-2.2,5.1-1.4c0.4,0.1,0.9,0.3,1.3,0.5
			c-0.8,0.5-1.9,0.9-2.2,1.2C25.9,34.5,23.2,34.9,21.1,34.6z"/>
		<path class="st0" d="M21.1,34.6c-0.2,0.8,0.7,1.8,0.7,3.7c0,0.6,2.2,1.1,2.7,1.1c0.1,0,0.2,0,0.4,0c0-1.8,0.8-3.9,1-5.2
			C24.5,34.7,22.6,34.8,21.1,34.6z"/>
	</g>
	<g>
		<path class="st0" d="M15.8,42.4c0.9,1.1,3.4,1.6,4.4,0.9c0.3,0.1,2-1.5,2-2.2c0.2-3-4.4-3.2-4.5-3.2C16,36.6,15.8,41.6,15.8,42.4z
			"/>
		<path class="st0" d="M22.2,41c0.1-2.9-4.4-3-4.5-3.1c-0.6-0.4-1-0.1-1.3,0.5C18,41.1,20.6,41.4,22.2,41z"/>
		<path class="st0" d="M19.3,40.8c-1.4,0.1-1.6,1.4-1.6,2.6c0.9,0.2,2,0.2,2.5-0.2c0.3,0.1,2-1.5,2-2.2v-0.1
			C21.4,41.2,20.3,41.2,19.3,40.8z"/>
	</g>
	<g>
		<path class="st0" d="M18.7,46.6c0,0-0.4,3.8,0.9,4.3c2.6,1.1,5.4,2.6,7.6,0.1c0,0,1.1-2.5,0.9-2.7c-0.8-0.8,0.5-1.9-1.8-2.1
			C23.2,45.8,21.4,42.8,18.7,46.6z"/>
		<path class="st0" d="M18.7,46.6c0,0-0.4,3.8,0.9,4.3c1.7,0.7,3.5,1.6,5.1,1.4c0.1-1.9-2.2-3-2.5-3.5v-0.1c0.4-0.4-1-1.8-1.3-2.1
			c-0.5-0.4-1-0.7-1.5-0.9C19.2,46,19,46.2,18.7,46.6z"/>
		<path class="st0" d="M18.7,46.6L18.7,46.6c0.7,0.5,1.3,0.9,2.2,1.7c2,1.6,3.9-1.1,5-0.6c0.2,0.1,1.1,0.3,2,0.5
			c-0.7-0.8,0.5-1.8-1.7-2C23.2,45.8,21.4,42.8,18.7,46.6z"/>
		<path class="st0" d="M25,47.8c0.4-0.2,0.7-0.3,1-0.2c0.2,0.1,1.1,0.3,2,0.5c-0.7-0.8,0.5-1.8-1.7-2c-0.2,0-0.3,0-0.5-0.1
			C25.3,46.6,25,47.3,25,47.8z"/>
	</g>
	<g>
		<path class="st0" d="M12.4,52.6c-0.5-0.2-1.6-3.3,0.3-4.4c3.9-2.1,4.6,5.1,2.2,5.1c-1.9,0-1.6-0.5-2.4-0.8
			C12.5,52.5,12.4,52.6,12.4,52.6z"/>
		<path class="st0" d="M15.9,49c0.9,1.6,0.5,4.3-1,4.3h-0.1C14.3,50.5,14.1,49.7,15.9,49z"/>
		<path class="st0" d="M12,48.9c0.2-0.3,0.4-0.5,0.7-0.7c1.8-1,2.9,0,3.4,1.4C15.2,50.4,13.2,49.6,12,48.9z"/>
	</g>
	<g>
		<path class="st0" d="M20.4,54c-0.3-0.1-3.1-2.8,0.3-4.4c1.2-0.6,1.5-0.2,2.4,1.3c0.4,0.6,1.5,3.7-0.1,4.1
			C21.8,55.3,21.1,54.3,20.4,54z"/>
		<path class="st0" d="M22.9,50.7c0.1,0.1,0.1,0.2,0.2,0.3c0.4,0.6,1.5,3.7-0.1,4.1c-0.8,0.2-1.4-0.3-1.9-0.6
			C20.9,52.4,21,50.9,22.9,50.7z"/>
		<path class="st0" d="M19.1,51c0.2-0.5,0.7-0.9,1.5-1.3c1.2-0.6,1.5-0.2,2.3,1.2C21.8,52.5,20.6,51.2,19.1,51z"/>
		<path class="st0" d="M21.6,49.4c0.5,0,0.9,0.5,1.4,1.4c-0.2,0.3-0.5,0.5-0.7,0.6C21.9,51.2,21.6,50.6,21.6,49.4z"/>
	</g>
	<g>
		<path class="st0" d="M33.5,56.6c-0.1-0.1-1.6-5.4-0.6-5.9c1.1-0.5,1.5-2.6,3.6-1.7c3.7,1.5,2.3,1.4,3.1,5.6
			C40.4,58.9,33.4,59.7,33.5,56.6L33.5,56.6z"/>
		<path class="st0" d="M38.2,49.8c1.5,0.9,0.7,1.5,1.4,4.8c0.5,2.3-1.3,3.6-3,3.9c-0.3-1.3-0.1-3.2-0.2-3.8
			C35.8,53.2,36.6,50.7,38.2,49.8z"/>
		<path class="st0" d="M38.2,49.8c1.2,0.7,0.9,1.2,1.1,3c-0.7-0.8-1.5-1.7-2-2.3C37.6,50.2,37.9,50,38.2,49.8z"/>
		<path class="st0" d="M32.5,51.6c0-0.4,0.1-0.8,0.4-0.8c1.1-0.5,1.5-2.6,3.6-1.7c0.9,0.4,1.6,0.7,2,0.9c-0.5,0.4-1.1,0.7-1.1,0.9
			c-1.1,2-2.3,0.1-3.5,0.6C33.3,51.6,32.9,51.7,32.5,51.6z"/>
		<path class="st0" d="M32.6,52.7c0.2,1.7,0.8,3.8,0.9,3.9l0,0c-0.1,1.4,1.5,2,3,1.8c-0.2-1.1-0.2-2.5-0.2-3.3
			c-0.3-0.3-0.6-0.6-0.7-0.7C34.7,53.5,33.5,53,32.6,52.7z"/>
	</g>
	<g>
		<path class="st0" d="M25.6,57.9c0.3-2-1.3-4.8,1.4-5.7c0.1,0,2,0.7,2.3,0.8c1,0.3,0,0.9,1.6,2c1.9,1.2,1.2,1.8,1.8,4
			c0.6,2.3-4.5,1.2-5.8-0.6C26.7,58.2,25.6,57.9,25.6,57.9L25.6,57.9z"/>
		<path class="st0" d="M25.5,53.8c0.1-0.7,0.6-1.3,1.6-1.6c0.1,0,2,0.7,2.3,0.8c1,0.3,0,0.9,1.6,2c0.7,0.5,1.1,0.8,1.3,1.3
			c-0.3,0-0.8-0.1-1.2-0.1c-0.6,0-1.6,1.5-1.9,0.5C28.4,54.8,26.4,54.3,25.5,53.8z"/>
		<path class="st0" d="M30.1,54.2c0.1,0.2,0.4,0.5,0.8,0.8c0.7,0.5,1.1,0.8,1.3,1.3c-0.3,0-0.8-0.1-1.2-0.1c-0.3,0-0.6,0.4-1,0.6
			C29.2,55.6,29.1,54.9,30.1,54.2z"/>
		<path class="st0" d="M29.1,52.9c0.1,0,0.2,0.1,0.3,0.1c0.8,0.3,0.3,0.7,1,1.5c-1.3,1.2-0.8,1.4-1.3,2.1l0,0
			c-0.1-0.4-0.3-0.7-0.6-1c0-0.6,0-1.1,0-1.2C28.4,53.9,28.7,53.3,29.1,52.9z"/>
		<path class="st0" d="M25.5,53.8c0.1-0.7,0.5-1.2,1.3-1.5c0.5,0.9,1.3,2.2,1.3,3C27.3,54.5,26.1,54.1,25.5,53.8z"/>
	</g>
	<g>
		<path class="st0" d="M18,60.1c-5,0.9-4.1-0.2-3.5,4.2c0.2,1.9,1.1,1.2,2.8,1.9c1.7,0.7,3.8,0.1,3.5-1.9c-0.1-0.6-2.3-4.3-2.6-4.3
			C18.2,60.1,18,60.1,18,60.1z"/>
		<path class="st0" d="M14,61.4c0,0.5,0.2,1.4,0.4,3c0.2,1.9,1.1,1.2,2.8,1.9c0.6,0.3,1.3,0.3,1.9,0.2c-0.2-0.6-0.6-1.4-1.5-2.4
			C15.3,61.2,15,61.9,14,61.4z"/>
		<path class="st0" d="M14.5,64.8c0.3,1.3,1.2,0.8,2.8,1.5c0.6,0.3,1.3,0.3,1.9,0.2c-0.2-0.6-0.6-1.4-1.5-2.4l0,0
			C16.7,63.9,15.6,64.2,14.5,64.8z"/>
		<path class="st0" d="M20,66.2c0.6-0.3,0.9-1,0.8-1.9c-0.1-0.5-1.6-3.2-2.3-4c-0.2,1.2,0.6,3,1,3.8C19.7,64.5,19.8,65.4,20,66.2z"
			/>
	</g>
	<g>
		<path class="st0" d="M26.3,60.2c-0.7,0-3.9,0.9-4.1,1.5c-0.4,1.3,0.5,2.7-0.2,4.4c-0.6,1.4,2.1,2,3.3,2.5c0.4,0.2,2.2-1.8,3-2.3
			c1.7-1.2-0.6-4-1.2-5.7C26.9,60.3,26.6,60.2,26.3,60.2z"/>
		<path class="st0" d="M24.6,68.5c0.3,0.1,0.5,0.2,0.8,0.2c0.4,0.2,2.2-1.8,3-2.3c1.7-1.2-0.6-4-1.2-5.7c-0.1-0.4-0.4-0.4-0.7-0.4
			c-0.3,1.1-0.7,2.5-1.8,3.8C23.5,65.5,24.1,66.7,24.6,68.5z"/>
		<path class="st0" d="M22.2,61.8c-0.4,1.3,0.1,3.1-0.6,4.8C21,68,24,68.2,25.3,68.7c0.1,0,0.2,0,0.3-0.1c-0.3-1.4-1.1-3.1-1.5-3.9
			C23.3,63,23.2,64.6,22.2,61.8z"/>
	</g>
	<g>
		<path class="st0" d="M39.2,58.8c-2.2,0-2.8,0.9-5,1.7c-5,1.6-1,3.2,0.2,5.3c1,1.8,3.7,0.4,5.7,0.5c1.8,0.1,6.3-0.2,4.8-3
			c-0.6-1.1,0.7-2.2-2.7-3.3C41.9,59.9,39.4,58.8,39.2,58.8z"/>
		<path class="st0" d="M34.9,66.3c1.2,0.9,3.5-0.2,5.2-0.1c1.8,0.1,6.3-0.2,4.8-3c-0.2-0.4-0.2-0.8-0.2-1.3
			c-0.8,1.2-1.5,3.3-3.4,3.6c-3.4,0.4-3.2-0.6-5.3-1.3C36,64.2,35.2,65.2,34.9,66.3z"/>
		<path class="st0" d="M33.9,65.1c0.2,0.2,0.3,0.4,0.4,0.6c0.5,0.8,1.3,1,2.2,0.9c0.2-0.7,0.3-1.5,0.5-1.9c0.5-1.1-1.8-3.4-2-3.1
			c-0.4,0.6-0.9,1-1.1,1.8C33.9,63.8,33.9,64.5,33.9,65.1z"/>
		<path class="st0" d="M39.2,58.8c-2.2,0-2.8,0.9-5,1.7c-1.3,0.4-2,0.9-2.3,1.3c0.8,0.3,1.8,0.7,2.8,1.2c1.3,0.7,5.6-1.6,8.2-1.5
			c0.5,0,1-0.1,1.4-0.4c-0.3-0.3-1-0.7-2-1C41.9,59.9,39.4,58.8,39.2,58.8z"/>
		<path class="st0" d="M39.2,58.8c-0.4,0-0.8,0-1.1,0.1c0.5,0.6,1.2,1.2,2,1.7c0.6,0.4,1.9,0.8,3.1,0.9c0.4,0,0.8-0.2,1-0.4
			c-0.3-0.3-1-0.7-2-1C41.9,59.9,39.4,58.8,39.2,58.8z"/>
		<path class="st0" d="M31.9,61.7c-0.6,0.8,0.4,1.7,1.4,2.7c0-0.3,0-0.6,0-0.7c-0.2-0.5-0.1-1,0-1.4C32.9,61.7,32.4,61.7,31.9,61.7z
			"/>
	</g>
	<g>
		<path class="st0" d="M7.5,63.7c-1.8,0-2.3,0.6-4.2,1.1c-4.2,1-0.9,2,0.1,3.4c0.9,1.2,3.1,0.3,4.8,0.3c1.5,0.1,5.3-0.1,4.1-1.9
			c-0.5-0.7,0.6-1.4-2.3-2.1C9.8,64.4,7.7,63.7,7.5,63.7z"/>
		<path class="st0" d="M3.9,68.5c1,0.6,2.9-0.1,4.4-0.1c1.5,0.1,5.3-0.1,4.1-1.9c-0.2-0.3-0.2-0.5-0.2-0.8c-0.7,0.8-1.2,2.1-2.8,2.3
			c-2.8,0.3-2.7-0.4-4.4-0.8C4.8,67.2,4.2,67.8,3.9,68.5z"/>
		<path class="st0" d="M3.1,67.8c0.1,0.1,0.3,0.3,0.4,0.4c0.4,0.5,1.1,0.6,1.8,0.6c0.1-0.4,0.3-0.9,0.4-1.2c0.4-0.7-1.5-2.2-1.7-2
			c-0.4,0.4-0.8,0.6-0.9,1.2C3.1,66.9,3.1,67.3,3.1,67.8z"/>
		<path class="st0" d="M7.5,63.7c-1.8,0-2.3,0.6-4.2,1.1c-1.1,0.3-1.7,0.5-1.9,0.8c0.7,0.2,1.5,0.4,2.3,0.8c1.1,0.4,4.7-1,6.8-1
			c0.4,0,0.9-0.1,1.1-0.3c-0.3-0.2-0.8-0.4-1.7-0.6C9.8,64.4,7.7,63.7,7.5,63.7z"/>
		<path class="st0" d="M7.5,63.7c-0.3,0-0.6,0-0.9,0.1c0.5,0.4,1,0.7,1.7,1.1c0.5,0.3,1.6,0.5,2.6,0.6c0.3,0,0.6-0.1,0.9-0.3
			c-0.3-0.2-0.8-0.4-1.7-0.6C9.8,64.4,7.7,63.7,7.5,63.7z"/>
		<path class="st0" d="M1.4,65.6c-0.5,0.5,0.4,1.1,1.2,1.7c0-0.2,0-0.4,0-0.5c-0.2-0.3-0.1-0.6,0-0.9C2.3,65.6,1.8,65.6,1.4,65.6z"
			/>
	</g>
	<g>
		<path class="st0" d="M9,56c-1.4,0.6-1.1,0-1.1,2.1c0.1,1.3,4.6,2.8,6.7,1.7c1.2-0.6,1.6,1.6,3.4-1.3c0,0,1.8-1.8,0.4-2.3
			c-0.8-0.3-1.5-0.4-2.4-1.2C15.2,54.4,9.1,55.9,9,56z"/>
		<path class="st0" d="M8.3,56.2c-0.6,0.2-0.4,0.2-0.4,1.9c0.1,1.3,4.6,2.8,6.7,1.7c1.2-0.6,1.6,1.6,3.4-1.3c0,0,0.7-0.6,0.9-1.3
			c-0.7-0.3-1.9-0.2-2.2-0.1C14.7,57.9,10.9,57.1,8.3,56.2z"/>
		<path class="st0" d="M8.3,56.2c-0.6,0.2-0.4,0.2-0.4,1.9c0.1,1.3,4.6,2.8,6.7,1.7c0.2-0.1,0.3-0.1,0.5-0.1
			c-0.1-0.2-0.2-0.4-0.4-0.6c-0.3-0.4-1.2-1.2-2-1.8C11.2,57.1,9.6,56.7,8.3,56.2z"/>
		<path class="st0" d="M15.4,59.8c0.7,0.2,1.3,1,2.7-1.2c0,0,0.7-0.6,0.9-1.3c-0.7-0.3-1.9-0.2-2.2-0.1c-0.1,0-0.2,0.1-0.3,0.1
			C16.1,57.8,15.6,58.9,15.4,59.8z"/>
	</g>
</g>
</svg>
