<?xml version="1.0" encoding="utf-8"?>
<!-- Generator: Adobe Illustrator 23.0.5, SVG Export Plug-In . SVG Version: 6.00 Build 0)  -->
<svg version="1.1" id="Layer_1" xmlns="http://www.w3.org/2000/svg" xmlns:xlink="http://www.w3.org/1999/xlink" x="0px" y="0px"
	 viewBox="0 0 75 75" style="enable-background:new 0 0 75 75;" xml:space="preserve">
<style type="text/css">
	.st0{fill:none;stroke:#B53234;stroke-width:2;stroke-miterlimit:10;}
	.st1{fill:none;stroke:#B53234;stroke-width:2;stroke-linecap:round;stroke-miterlimit:10;}
	.st2{fill:none;stroke:#B53234;stroke-width:1.9061;stroke-linecap:round;stroke-miterlimit:10;}
	.st3{fill:#B53234;}
</style>
<rect x="2.2" y="37.4" class="st0" width="9.8" height="29"/>
<path class="st1" d="M12,40.7c0,0,7.9-5.7,10-8.1s2.6-8,2.8-9.8c0.1-1.7,4-2.9,5.6,0c1.4,2.6,1.9,10.7,0.5,14.7
	c-0.2,0.5,0.2,1,0.8,1h11.2c1.8,0,3.3,1.5,3.3,3.3v0.4c0,1.8-1.5,3.3-3.3,3.3H37h4.6c1.8,0,3.3,1.5,3.3,3.3l0,0
	c0,1.8-1.5,3.3-3.3,3.3h-5.2h3.5c1.8,0,3.3,1.5,3.3,3.3v0.1c0,1.8-1.5,3.3-3.3,3.3h-5.1h3.5c1.8,0,3.3,1.5,3.3,3.3v0.1
	c0,1.8-1.5,3.3-3.3,3.3H20.1c0,0-2.9-3.3-7.8-3"/>
<path class="st1" d="M39.4,34.7V17.6c0-1.3,0.9-2.7,2.1-3.1L54.1,9C55,8.6,56,8.6,56.9,9l12.6,5.5c1.2,0.6,2.1,1.8,2.1,3.1v22.9
	v21.9c0,1.9-1.5,3.4-3.4,3.4l-12.7-0.2L46,65.8"/>
<circle class="st2" cx="55.5" cy="18.6" r="3"/>
<circle class="st3" cx="37" cy="45.5" r="1"/>
<circle class="st3" cx="36.3" cy="52.1" r="1"/>
<circle class="st3" cx="34.7" cy="58.8" r="1"/>
<path class="st3" d="M58.4,40.3H62l1.4-1.9H50.9l-1.4,1.9h4.9c1,0.3,1.8,1,2.3,1.9h-5.8l-1.4,1.9H57c-0.2,1.8-1.7,3.3-3.6,3.3h-3.2
	v2.4l6.9,8.1h3l-6.6-8.1h-0.2c3.2,0,5.9-2.5,6.1-5.7H62l1.4-1.9h-4.1C59.1,41.6,58.8,40.9,58.4,40.3z"/>
</svg>
