<?xml version="1.0" encoding="utf-8"?>
<!-- Generator: Adobe Illustrator 23.0.5, SVG Export Plug-In . SVG Version: 6.00 Build 0)  -->
<svg version="1.1" id="Layer_1" xmlns="http://www.w3.org/2000/svg" xmlns:xlink="http://www.w3.org/1999/xlink" x="0px" y="0px"
	 viewBox="0 0 90 90" style="enable-background:new 0 0 90 90;" xml:space="preserve">
<style type="text/css">
	.st0{fill:none;stroke:#B53234;stroke-width:2;stroke-miterlimit:10;}
	.st1{fill:#870E0E;}
	.st2{fill:#B53234;}
	.st3{fill:#FFFFFF;}
</style>
<g>
	<path class="st0" d="M75.9,48.3c0,17.6-3.8,31.8-3.8,31.8v6.1c0,1-0.8,1.9-1.8,1.9H19.7c-1,0-1.8-0.8-1.8-1.9v-6.1
		c0,0-3.8-14.2-3.8-31.8s3.8-31.8,3.8-31.8V6.6c0-0.5,0.4-0.9,0.9-0.9h8.8C32.3,3.7,38.4,2,45,2s12.7,1.8,17.4,3.7h8.8
		c0.5,0,0.9,0.4,0.9,0.9v9.9C72.1,16.5,75.9,30.7,75.9,48.3z"/>
	<path class="st1" d="M63.8,55.3l-0.9,1.3c-4,6-10.7,9.6-17.9,9.6s-13.9-3.6-17.9-9.6l-0.9-1.3H63.8z"/>
	<path class="st2" d="M24.2,54.1C27.8,62,35.8,67.5,45,67.5S62.2,62,65.8,54.1H24.2z M45,66.5c-8,0-15.3-4.4-19-11.3h38
		C60.3,62.1,53,66.5,45,66.5z"/>
	<path class="st3" d="M26.2,55.3l0.9,1.3c4,6,10.7,9.6,17.9,9.6s13.9-3.6,17.9-9.6l0.9-1.3H26.2z M45,65.4c-6.9,0-13.4-3.5-17.2-9.2
		h34.3C58.4,61.9,51.9,65.4,45,65.4z"/>
	<path class="st3" d="M62.2,56.2C58.4,61.9,52,65.4,45,65.4s-13.4-3.5-17.2-9.2H62.2z"/>
	<path class="st2" d="M63.8,55.3l-0.9,1.3c-4,6-10.7,9.6-17.9,9.6s-13.9-3.6-17.9-9.6l-0.9-1.3H63.8z"/>
	<path class="st1" d="M63.8,39.8H26.2l0.9-1.3c4-6,10.7-9.6,17.9-9.6s13.9,3.6,17.9,9.6L63.8,39.8z"/>
	<path class="st2" d="M45,27.6c-9.2,0-17.2,5.5-20.8,13.4h41.5C62.2,33.1,54.2,27.6,45,27.6z M45,28.7c8,0,15.3,4.4,19,11.3H26
		C29.7,33.1,37,28.7,45,28.7z"/>
	<path class="st3" d="M62.9,38.5c-4-6-10.7-9.6-17.9-9.6s-13.9,3.6-17.9,9.6l-0.9,1.3h37.5L62.9,38.5z M27.8,38.9
		c3.8-5.7,10.2-9.2,17.2-9.2s13.4,3.5,17.2,9.2H27.8z"/>
	<path class="st3" d="M62.2,38.9H27.8c3.8-5.7,10.2-9.2,17.2-9.2S58.4,33.2,62.2,38.9z"/>
	<path class="st2" d="M63.8,39.8H26.2l0.9-1.3c4-6,10.7-9.6,17.9-9.6s13.9,3.6,17.9,9.6L63.8,39.8z"/>
	<g>
		<path class="st2" d="M30.6,48.8c-0.1,0.8-0.4,1.4-0.9,1.9s-1.2,0.7-2.1,0.7c-1,0-1.7-0.3-2.3-1c-0.6-0.6-0.8-1.5-0.8-2.7v-0.5
			c0-0.7,0.1-1.4,0.4-1.9s0.6-1,1.1-1.3s1-0.4,1.6-0.4c0.9,0,1.6,0.2,2.1,0.7s0.8,1.1,0.9,1.9H29c0-0.5-0.2-0.8-0.4-1.1
			c-0.2,0-0.6-0.1-1-0.1c-0.5,0-0.9,0.2-1.2,0.6C26.1,46,26,46.5,26,47.3v0.6c0,0.8,0.1,1.4,0.4,1.8c0.2,0.4,0.6,0.6,1.2,0.6
			c0.5,0,0.8-0.1,1.1-0.3c0.2-0.2,0.4-0.6,0.4-1h1.5V48.8z"/>
		<path class="st2" d="M36.1,48.1h-3v2h3.5v1.2h-5v-7.5h5V45h-3.5v1.8h3V48.1z"/>
		<path class="st2" d="M39.5,43.8l1.9,5.4l1.9-5.4h2v7.5h-1.5v-2l0.2-3.5l-2,5.6h-1.1l-2-5.6l0.2,3.5v2h-1.5v-7.5H39.5z"/>
		<path class="st2" d="M51.2,48.1h-3v2h3.5v1.2h-5v-7.5h5V45h-3.5v1.8h3V48.1z"/>
		<path class="st2" d="M58.7,51.3h-1.5l-3-4.9v4.9h-1.5v-7.5h1.5l3,4.9v-4.9h1.5V51.3z"/>
		<path class="st2" d="M65.5,45.1h-2.3v6.2h-1.5v-6.2h-2.3v-1.2h6.1V45.1z"/>
	</g>
</g>
</svg>
