<?xml version="1.0" encoding="utf-8"?>
<!-- Generator: Adobe Illustrator 23.0.5, SVG Export Plug-In . SVG Version: 6.00 Build 0)  -->
<svg version="1.1" id="Layer_1" xmlns="http://www.w3.org/2000/svg" xmlns:xlink="http://www.w3.org/1999/xlink" x="0px" y="0px"
	 viewBox="0 0 25 25" style="enable-background:new 0 0 25 25;" xml:space="preserve">
<style type="text/css">
	.st0{fill:#A52A2A;}
</style>
<g>
	<path class="st0" d="M25,6c-0.1,0.4-0.4,0.6-0.6,0.9c-3.9,3.9-7.9,7.9-11.8,11.8c-0.3,0.3-0.7,0.6-1.2,0.5
		c-0.2-0.1-0.5-0.2-0.7-0.4c-2.1-2.1-4.3-4.2-6.4-6.4c-0.5-0.5-0.5-1.2,0-1.8c0.5-0.5,1-1,1.6-1.6c0.6-0.6,1.3-0.6,1.8,0
		c1.2,1.2,2.5,2.4,3.7,3.7c0.1,0.1,0.1,0.1,0.2,0.2c0.1-0.1,0.2-0.2,0.2-0.2c3.1-3.1,6.3-6.3,9.4-9.4c0.3-0.3,0.7-0.6,1.2-0.4
		C22.6,3,22.8,3.1,23,3.3c0.5,0.5,1.1,1,1.6,1.6c0.2,0.2,0.3,0.4,0.4,0.6C25,5.7,25,5.8,25,6z"/>
	<path class="st0" d="M10.6,1.9c2,0,4,0,6.1,0c0.6,0,1.2,0.1,1.8,0.3c0.4,0.2,0.5,0.5,0.2,0.9c-0.2,0.2-0.4,0.4-0.6,0.6
		c-0.2,0.2-0.3,0.2-0.6,0.2c-0.3-0.1-0.5-0.1-0.8-0.1c-4.1,0-8.1,0-12.2,0c-1.1,0-1.8,0.4-2.3,1.4C2,5.6,1.9,6,1.9,6.4
		c0,4.1,0,8.2,0,12.3c0,1.2,0.7,2.1,1.8,2.4c0.2,0.1,0.5,0.1,0.7,0.1c4.1,0,8.2,0,12.3,0c1,0,1.8-0.5,2.3-1.4
		c0.2-0.3,0.2-0.7,0.2-1.1c0-1.2,0-2.3,0-3.5c0-0.3,0.1-0.5,0.3-0.6c0.3-0.2,0.5-0.5,0.8-0.8c0.2-0.2,0.4-0.2,0.6-0.1
		c0.2,0.1,0.3,0.3,0.3,0.5c0,1.7,0,3.3,0,5c0,2-1.8,3.8-3.7,4c-0.2,0-0.5,0-0.7,0c-4.1,0-8.2,0-12.2,0c-1.7,0-3-0.7-3.9-2.2
		C0.2,20.3,0,19.7,0,19c0-0.8,0-1.5,0-2.3c0-3.4,0-6.9,0-10.3c0-1.9,0.9-3.2,2.6-4C3.2,2,3.8,1.9,4.5,1.9C6.5,1.9,8.6,1.9,10.6,1.9z
		"/>
</g>
</svg>
