<!-- Generated by IcoMoon.io -->
<svg version="1.1" xmlns="http://www.w3.org/2000/svg" width="13" height="14" viewBox="0 0 951 1024">
<title></title>
<g id="icomoon-ignore">
</g>
<path fill="#a4a4a6" d="M804.571 73.143h-73.143v-73.143h-73.143v73.143h-365.714v-73.143h-73.143v73.143h-73.143c-80.457 0-146.286 65.829-146.286 146.286v658.286c0 80.457 65.829 146.286 146.286 146.286h658.286c80.457 0 146.286-65.829 146.286-146.286v-658.286c0-80.457-65.829-146.286-146.286-146.286zM877.714 877.714c0 43.886-29.257 73.143-73.143 73.143h-658.286c-43.886 0-73.143-29.257-73.143-73.143v-658.286c0-43.886 29.257-73.143 73.143-73.143h73.143v73.143h73.143v-73.143h365.714v73.143h73.143v-73.143h73.143c43.886 0 73.143 29.257 73.143 73.143v658.286zM219.429 365.714h73.143v73.143h-73.143v-73.143zM365.714 365.714h73.143v73.143h-73.143v-73.143zM512 365.714h73.143v73.143h-73.143v-73.143zM658.286 365.714h73.143v73.143h-73.143v-73.143zM219.429 512h73.143v73.143h-73.143v-73.143zM365.714 512h73.143v73.143h-73.143v-73.143zM512 512h73.143v73.143h-73.143v-73.143zM658.286 512h73.143v73.143h-73.143v-73.143zM219.429 658.286h73.143v73.143h-73.143v-73.143zM365.714 658.286h73.143v73.143h-73.143v-73.143zM512 658.286h73.143v73.143h-73.143v-73.143z"></path>
</svg>
