<?xml version="1.0" encoding="utf-8"?>
<!-- Generator: Adobe Illustrator 23.0.5, SVG Export Plug-In . SVG Version: 6.00 Build 0)  -->
<svg version="1.1" id="Layer_1" xmlns="http://www.w3.org/2000/svg" xmlns:xlink="http://www.w3.org/1999/xlink" x="0px" y="0px"
	 viewBox="0 0 75 75" style="enable-background:new 0 0 75 75;" xml:space="preserve">
<style type="text/css">
	.st0{fill:none;stroke:#B53234;stroke-width:2;stroke-linecap:round;stroke-miterlimit:10;}
</style>
<g>
	<path class="st0" d="M13.7,49.6H3.1c-0.2,0-0.5-0.2-0.5-0.5V15c0-0.2,0.2-0.5,0.5-0.5h40.1c0.2,0,0.5,0.2,0.5,0.5v34.1
		c0,0.2-0.2,0.5-0.5,0.5H25.5"/>
	<line class="st0" x1="52.8" y1="53.4" x2="26.7" y2="53.4"/>
	<path class="st0" d="M65.8,49.6h7.2c0.5,0,0.9,0.4,0.9,0.9v2c0,0.5-0.4,0.9-0.9,0.9h-6"/>
	<line class="st0" x1="25.5" y1="49.6" x2="54" y2="49.6"/>
	<path class="st0" d="M12.6,53.4H2.1c-0.5,0-0.9-0.4-0.9-0.9v-2c0-0.5,0.4-0.9,0.9-0.9h11.7"/>
	<path class="st0" d="M47.4,49.6V25.4c0-1.2,1-2.1,2.1-2.1h16.1c0.9,0,1.6,0.5,2,1.3l4.8,11.8v13.2"/>
	<path class="st0" d="M51.3,36V28c0-0.2,0.2-0.5,0.5-0.5h11.7c0.2,0,0.3,0.1,0.4,0.3l3.8,7.9c0.1,0.3-0.1,0.6-0.4,0.6H51.7
		C51.5,36.4,51.3,36.2,51.3,36z"/>
	<line class="st0" x1="14.8" y1="28.6" x2="36.8" y2="28.6"/>
	<line class="st0" x1="31.7" y1="33.9" x2="17.6" y2="33.9"/>
	<line class="st0" x1="25.9" y1="23.3" x2="11.8" y2="23.3"/>
	<line class="st0" x1="34.9" y1="39.6" x2="11.8" y2="39.6"/>
	<circle class="st0" cx="19.6" cy="53.4" r="3.3"/>
	<circle class="st0" cx="19.6" cy="53.4" r="7"/>
	<circle class="st0" cx="59.9" cy="53.4" r="3.3"/>
	<circle class="st0" cx="59.9" cy="53.4" r="7"/>
</g>
</svg>
