<?xml version="1.0" encoding="utf-8"?>
<!-- Generator: Adobe Illustrator 23.0.5, SVG Export Plug-In . SVG Version: 6.00 Build 0)  -->
<svg version="1.1" id="Layer_1" xmlns="http://www.w3.org/2000/svg" xmlns:xlink="http://www.w3.org/1999/xlink" x="0px" y="0px"
	 viewBox="0 0 75 75" style="enable-background:new 0 0 75 75;" xml:space="preserve">
<style type="text/css">
	.st0{fill:none;stroke:#B53234;stroke-width:2;stroke-miterlimit:10;}
	.st1{fill:none;stroke:#B53234;stroke-width:1.6;stroke-miterlimit:10;}
</style>
<g>
	<path class="st0" d="M60.8,47.4c0,6.5-2.7,12.4-7,16.6c-4.2,4.1-10,6.7-16.3,6.7S25.4,68.1,21.2,64c-4.3-4.2-7-10.1-7-16.6
		c0-12.9,10.4-23.3,23.3-23.3S60.8,34.6,60.8,47.4z"/>
	<circle class="st0" cx="37.5" cy="40.5" r="8.6"/>
	<path class="st0" d="M53.8,64c-4.2,4.1-10,6.7-16.3,6.7S25.4,68.1,21.2,64c2.3-6.8,8.7-11.8,16.3-11.8S51.5,57.1,53.8,64z"/>
	<g>
		<polygon class="st1" points="8.7,23.9 10.1,28 14.3,28 10.9,30.5 12.2,34.6 8.7,32 5.3,34.6 6.5,30.5 3.1,28 7.4,28 		"/>
		<polygon class="st1" points="66.3,23.9 67.6,28 71.9,28 68.5,30.5 69.7,34.6 66.3,32 62.8,34.6 64.1,30.5 60.7,28 64.9,28 		"/>
	</g>
	<g>
		<polygon class="st1" points="19.4,10.4 21,15.2 26,15.2 22,18.1 23.5,22.9 19.4,19.9 15.5,22.9 17,18.1 13,15.2 17.9,15.2 		"/>
		<polygon class="st1" points="55.6,10.4 57.1,15.2 62,15.2 58,18.1 59.5,22.9 55.6,19.9 51.5,22.9 53,18.1 49,15.2 54,15.2 		"/>
	</g>
	<polygon class="st1" points="37.5,4.2 39.1,8.9 44.1,8.9 40,11.8 41.7,16.6 37.5,13.7 33.4,16.6 35,11.8 31,8.9 35.9,8.9 	"/>
</g>
</svg>
