<?xml version="1.0" encoding="utf-8"?>
<!-- Generator: Adobe Illustrator 16.0.0, SVG Export Plug-In . SVG Version: 6.00 Build 0)  -->
<!DOCTYPE svg PUBLIC "-//W3C//DTD SVG 1.1//EN" "http://www.w3.org/Graphics/SVG/1.1/DTD/svg11.dtd">
<svg version="1.1" id="Layer_1" xmlns="http://www.w3.org/2000/svg" xmlns:xlink="http://www.w3.org/1999/xlink" x="0px" y="0px"
	 width="28px" height="35px" viewBox="0 0 28 35" enable-background="new 0 0 28 35" xml:space="preserve">
<g>
	<path fill="#BBBBBB" d="M28,19.324c0,0-3-2.16-3-6C25,3.017,19.663,0,13.83,0C8.163,0,3,3.408,3,13.369c0,4.809-3,6.975-3,6.975
		s1.834,3.385,3.412,3.922c-0.01-0.004-0.02-0.004-0.03-0.008c-1.529,2.178-2.549,5.447-2.549,10.379h1
		c0-5.67,1.357-8.998,3.317-10.951c-0.11,0.084,1.276-1.281,2.926-1.887c0.388-0.143,0.921-0.26,1.433-0.332
		c1.265,0.914,2.739,1.482,4.324,1.482c1.46,0,2.958-0.582,4.166-1.381c0.964,0.246,2.34,0.621,2.771,0.858
		c0.781,0.437,1.592,1.046,2.229,1.669c1.696,1.995,2.833,5.245,2.833,10.54h1c0-4.331-0.76-7.377-1.949-9.53
		C26.125,23.732,28,19.324,28,19.324z M17.948,20.412C17.949,20.412,17.949,20.411,17.948,20.412
		c-1.162,0.941-2.565,1.537-4.115,1.537c-1.257,0-2.416-0.396-3.431-1.045c-0.266-0.191-0.581-0.424-0.886-0.661
		c-0.538-0.466-1.019-1.005-1.434-1.599c-0.281-0.457-0.609-1.024-0.906-1.617c-0.475-1.078-0.747-2.231-0.771-3.354
		c0.002-0.386,0.016-0.74,0.048-1.053c0.042-0.37,0.114-0.74,0.205-1.107C7.044,10.231,7.854,9.808,9,9.393
		c1.833-0.663,3-3.005,3-3.005s3.166,3.27,5,3.937c1.833,0.667,3,0.497,3,5c0,1.349-0.352,3.149-1,4
		C18.854,19.516,18.393,19.979,17.948,20.412z M6.468,12.507c0.019-0.159,0.037-0.317,0.063-0.458
		C6.505,12.19,6.486,12.347,6.468,12.507z M21.256,21.555c-0.414-0.229-1.367-0.521-2.27-0.763c0.354-0.353,0.67-0.681,0.808-0.86
		C20.627,18.844,21,16.833,21,15.324c0-4.417-1.177-5.121-3.113-5.754c-0.174-0.057-0.354-0.116-0.545-0.185
		c-1.324-0.481-3.785-2.829-4.623-3.692l-0.984-1.015l-0.631,1.264c-0.01,0.02-1.027,1.998-2.445,2.51
		c-2.393,0.868-3.486,2.067-3.22,6.539c0.104,1.758,2.265,4.911,2.286,4.94c0.144,0.202,0.4,0.454,0.705,0.717
		c-0.262,0.062-0.509,0.135-0.725,0.221c-1.261,0.503-2.132,1.199-2.832,1.76c-0.41,0.328-0.834,0.668-1.062,0.715
		c-0.47,0-1.615-1.287-2.542-2.801c0.999-1.023,2.73-3.349,2.73-7.174C3.999,2.607,10.158,1,13.829,1
		c6.748,0,10.17,4.146,10.17,12.324c0,3.189,1.801,5.339,2.789,6.277c-0.796,1.791-1.767,3.668-2.392,4.534
		C23.577,23.107,22.279,22.123,21.256,21.555z"/>
	<path fill="#BBBBBB" d="M8.221,21.751c-0.047,0.017-0.101,0.028-0.145,0.048c-0.018,0.006-0.033,0.016-0.05,0.021
		C8.09,21.797,8.156,21.773,8.221,21.751z"/>
</g>
<path fill="#FFFFFF" d="M1.833,34.637c0-5.67,1.357-8.998,3.317-10.951c-0.11,0.084,1.276-1.281,2.926-1.887
	c0.388-0.143,0.921-0.26,1.433-0.332c1.265,0.914,2.739,1.482,4.324,1.482c1.46,0,2.958-0.582,4.166-1.381
	c0.964,0.246,2.34,0.621,2.771,0.858c0.781,0.437,1.592,1.046,2.229,1.669c1.696,1.995,2.833,5.245,2.833,10.54L1.833,34.637
	L1.833,34.637z M17.948,20.412C17.949,20.412,17.949,20.411,17.948,20.412c-1.162,0.941-2.565,1.537-4.115,1.537
	c-1.257,0-2.416-0.396-3.431-1.045c-0.266-0.191-0.581-0.424-0.886-0.661c-0.538-0.466-1.019-1.005-1.434-1.599
	c-0.281-0.457-0.609-1.024-0.906-1.617c-0.475-1.078-0.747-2.231-0.771-3.354c0.002-0.386,0.016-0.74,0.048-1.053
	c0.042-0.37,0.114-0.74,0.205-1.107C7.044,10.231,7.854,9.808,9,9.393c1.833-0.663,3-3.005,3-3.005s3.166,3.27,5,3.937
	c1.833,0.667,3,0.497,3,5c0,1.349-0.352,3.149-1,4C18.854,19.516,18.393,19.979,17.948,20.412z M6.468,12.507
	c0.019-0.159,0.037-0.317,0.063-0.458C6.505,12.19,6.486,12.347,6.468,12.507z M21.256,21.555c-0.414-0.229-1.367-0.521-2.27-0.763
	c0.354-0.353,0.67-0.681,0.808-0.86C20.627,18.844,21,16.833,21,15.324c0-4.417-1.177-5.121-3.113-5.754
	c-0.174-0.057-0.354-0.116-0.545-0.185c-1.324-0.481-3.785-2.829-4.623-3.692l-0.984-1.015l-0.631,1.264
	c-0.01,0.02-1.027,1.998-2.445,2.51c-2.393,0.868-3.486,2.067-3.22,6.539c0.104,1.758,2.265,4.911,2.286,4.94
	c0.144,0.202,0.4,0.454,0.705,0.717c-0.262,0.062-0.509,0.135-0.725,0.221c-1.261,0.503-2.132,1.199-2.832,1.76
	c-0.41,0.328-0.834,0.668-1.062,0.715c-0.47,0-1.615-1.287-2.542-2.801c0.999-1.023,2.73-3.349,2.73-7.174
	C3.999,2.607,10.158,1,13.829,1c6.748,0,10.17,4.146,10.17,12.324c0,3.189,1.801,5.339,2.789,6.277
	c-0.796,1.791-1.767,3.668-2.392,4.534C23.577,23.107,22.279,22.123,21.256,21.555z"/>
</svg>
