<?xml version="1.0" encoding="utf-8"?>
<!-- Generator: Adobe Illustrator 16.0.0, SVG Export Plug-In . SVG Version: 6.00 Build 0)  -->
<!DOCTYPE svg PUBLIC "-//W3C//DTD SVG 1.1//EN" "http://www.w3.org/Graphics/SVG/1.1/DTD/svg11.dtd">
<svg version="1.1" id="Layer_1" xmlns="http://www.w3.org/2000/svg" xmlns:xlink="http://www.w3.org/1999/xlink" x="0px" y="0px"
	 width="26px" height="31px" viewBox="0 0 26 31" enable-background="new 0 0 26 31" xml:space="preserve">
<path fill="#BBBBBB" d="M18.412,16.493c1.85-1.823,3.025-4.457,3.025-7.058C21.438,4.778,17.66,0,13,0S4.562,4.778,4.562,9.436
	c0,2.619,1.193,5.274,3.064,7.099C3.71,17.743,0,21.134,0,30.563h1c0-9.244,3.6-12.276,7.553-13.248l0,0
	c1.291,0.963,2.812,1.562,4.447,1.562c1.652,0,3.189-0.606,4.491-1.592C21.428,18.206,25,21.171,25,30.563h1
	C26,20.996,22.314,17.656,18.412,16.493z M5.563,9.436C5.563,5.454,8.744,1,13,1c4.258,0,7.438,4.454,7.438,8.436
	c0,3.983-3.18,8.439-7.438,8.439C8.744,17.875,5.563,13.419,5.563,9.436z"/>
<g>
	<path fill="#FFFFFF" d="M13,17.875c4.258,0,7.438-4.456,7.438-8.439C20.438,5.454,17.258,1,13,1C8.744,1,5.563,5.454,5.563,9.436
		C5.563,13.419,8.744,17.875,13,17.875z"/>
	<path fill="#FFFFFF" d="M17.49,17.283c-1.303,0.984-2.84,1.592-4.491,1.592c-1.635,0-3.156-0.598-4.447-1.561
		C4.6,18.285,1,21.318,1,30.563h24C25,21.171,21.428,18.206,17.49,17.283z"/>
</g>
</svg>
