<?xml version="1.0" encoding="utf-8"?>
<!-- Generator: Adobe Illustrator 16.0.0, SVG Export Plug-In . SVG Version: 6.00 Build 0)  -->
<!DOCTYPE svg PUBLIC "-//W3C//DTD SVG 1.1//EN" "http://www.w3.org/Graphics/SVG/1.1/DTD/svg11.dtd">
<svg version="1.1" id="Layer_1" xmlns="http://www.w3.org/2000/svg" xmlns:xlink="http://www.w3.org/1999/xlink" x="0px" y="0px"
	 width="19px" height="17px" viewBox="0 -2 19 17" enable-background="new 0 -2 19 17" xml:space="preserve">
<path fill="#222" d="M13.6-1c0,0,0.1,0,0.1,0c2.4,0,4.6,2.2,4.2,5.1c-0.1,1-1.4,2.9-2.4,4c-1,1.1-6.1,5.5-6.1,5.5s-5-4.4-6.1-5.5
	C2.4,7,1.2,5,1.1,4.1C0.6,1.2,2.8-1,5.3-1c2,0,4.2,2.7,4.2,2.7S11.4-1,13.6-1 M13.6-2c-1.8,0-3.3,1.2-4.1,2.2C8.5-0.7,6.9-2,5.3-2
	c-1.5,0-3,0.7-4,1.8C0.3,1-0.2,2.6,0.1,4.2c0.2,1.3,1.6,3.5,2.7,4.6c1.1,1.1,5.9,5.4,6.1,5.5l0.7,0.6l0.7-0.6
	c0.2-0.2,5.1-4.4,6.1-5.5c1-1.1,2.5-3.3,2.7-4.6c0.2-1.7-0.3-3.3-1.4-4.4c-1-1.1-2.4-1.7-3.9-1.7C13.7-2,13.7-2,13.6-2L13.6-2z"/>
</svg>
