<?xml version="1.0" encoding="utf-8"?>
<!-- Generator: Adobe Illustrator 16.0.0, SVG Export Plug-In . SVG Version: 6.00 Build 0)  -->
<!DOCTYPE svg PUBLIC "-//W3C//DTD SVG 1.1//EN" "http://www.w3.org/Graphics/SVG/1.1/DTD/svg11.dtd">
<svg version="1.1" id="Layer_1" xmlns="http://www.w3.org/2000/svg" xmlns:xlink="http://www.w3.org/1999/xlink" x="0px" y="0px"
	 width="16px" height="20px" viewBox="0 -2 16 20" enable-background="new 0 -2 16 20" xml:space="preserve">
<path fill="#222" d="M15,2h-3.1c-0.1-0.9-0.4-2-1.1-2.9C10.1-1.6,9.2-2,8-2C6.8-2,5.9-1.6,5.2-0.8C4.5,0,4.2,1.1,4.1,2H1L0,18h16L15,2z M6-0.2
	C6.5-0.7,7.1-1,8-1s1.5,0.3,2,0.8c0.5,0.5,0.7,1.4,0.8,2.2H5.1C5.3,1.3,5.5,0.4,6-0.2z M1.1,17L1.9,3h2.1c0,0.3,0,0.9,0,1h1
	c0,0,0-0.6,0-1h5.9c0,0.3,0,1,0,1l1,0c0-0.1,0-0.7,0-1h2.1l0.9,14H1.1z"/>
</svg>
