<?xml version="1.0" encoding="utf-8"?>
<!-- Generator: Adobe Illustrator 16.0.0, SVG Export Plug-In . SVG Version: 6.00 Build 0)  -->
<!DOCTYPE svg PUBLIC "-//W3C//DTD SVG 1.1//EN" "http://www.w3.org/Graphics/SVG/1.1/DTD/svg11.dtd">
<svg version="1.1" id="Layer_1" xmlns="http://www.w3.org/2000/svg" xmlns:xlink="http://www.w3.org/1999/xlink" x="0px" y="0px"
	 width="18px" height="15px" viewBox="-1 0 18 15" enable-background="new -1 0 18 15" xml:space="preserve">
<path fill="#666666" d="M8.133,0.333c-0.4,0-0.667,0.267-0.667,0.534L5.733,4.6L0.667,5.266C0.267,5.266,0,5.666,0,5.933
	s0.133,0.4,0.267,0.533C0.4,6.6,3.6,9.399,3.6,9.399l-0.934,4.667c0,0.133,0,0.133,0,0.266C2.533,14.732,2.933,15,3.333,15
	c0.133,0,0.267,0,0.4-0.134l4.4-2.4c0,0,4.267,2.267,4.4,2.4S12.8,15,12.934,15c0.4,0,0.666-0.268,0.666-0.668
	c0-0.133,0-0.133,0-0.266c0-0.134-1.066-4.667-1.066-4.667s2.934-2.8,3.066-2.934c0.268,0,0.4-0.267,0.4-0.533
	c0-0.4-0.267-0.667-0.666-0.667L10.533,4.6L8.8,0.866C8.666,0.6,8.4,0.333,8.133,0.333z"/>
</svg>
