<?xml version="1.0" encoding="utf-8"?>
<!-- Generator: Adobe Illustrator 16.0.0, SVG Export Plug-In . SVG Version: 6.00 Build 0)  -->
<!DOCTYPE svg PUBLIC "-//W3C//DTD SVG 1.1//EN" "http://www.w3.org/Graphics/SVG/1.1/DTD/svg11.dtd">
<svg version="1.1" id="Layer_1" xmlns="http://www.w3.org/2000/svg" xmlns:xlink="http://www.w3.org/1999/xlink" x="0px" y="0px"
	 width="14px" height="11px" viewBox="-1 0 14 11" enable-background="new -1 0 14 11" xml:space="preserve">
<path fill="#666666" d="M6.1,0c-0.3,0-0.5,0.2-0.5,0.4l-1.3,2.8l-3.8,0.5C0.2,3.701,0,4,0,4.201c0,0.2,0.1,0.3,0.2,0.4
	c0.1,0.1,2.5,2.2,2.5,2.2l-0.7,3.5c0,0.1,0,0.1,0,0.199C1.9,10.801,2.2,11,2.5,11c0.1,0,0.2,0,0.3-0.1L6.1,9.1
	c0,0,3.2,1.701,3.3,1.801C9.5,11,9.6,11,9.7,11c0.3,0,0.5-0.199,0.5-0.5c0-0.1,0-0.1,0-0.199s-0.8-3.5-0.8-3.5s2.199-2.1,2.3-2.2
	c0.2,0,0.3-0.2,0.3-0.4c0-0.3-0.2-0.5-0.5-0.5l-3.6-0.5L6.6,0.4C6.5,0.201,6.3,0,6.1,0z"/>
</svg>
