<?xml version="1.0" encoding="utf-8"?>
<!-- Generator: Adobe Illustrator 20.1.0, SVG Export Plug-In . SVG Version: 6.00 Build 0)  -->
<svg version="1.1" id="Layer_1" xmlns="http://www.w3.org/2000/svg" xmlns:xlink="http://www.w3.org/1999/xlink" x="0px" y="0px"
	 width="16px" height="15px" viewBox="0 0 16 15" style="enable-background:new 0 0 16 15;" xml:space="preserve">
<style type="text/css">
	.st0{fill:#666666;}
</style>
<path class="st0" d="M14.6,6.4C14.5,6.6,12,9,12,9s0.8,3.8,0.9,4c0,0.2,0.1,0.2,0.1,0.4c0,0.4-0.2,0.6-0.6,0.6c-0.1,0-0.2,0-0.4-0.1
	c-0.2-0.1-3.9-2.1-3.9-2.1s-3.7,2-3.8,2.1S4,14,3.9,14c-0.4,0-0.6-0.3-0.6-0.6c0-0.1,0-0.2,0-0.3C3.4,13,4.2,9,4.2,9
	S1.3,6.6,1.2,6.4C1.1,6.3,1,6.2,1,6c0-0.2,0.2-0.6,0.6-0.6L6,4.8c0,0,1.4-3.1,1.5-3.3S7.8,1,8.1,1s0.5,0.2,0.6,0.5l1.5,3.3l4.2,0.6
	C14.8,5.4,15,5.6,15,6C15,6.2,14.8,6.3,14.6,6.4z"/>
</svg>
