<?xml version="1.0" encoding="utf-8"?>
<!-- Generator: Adobe Illustrator 16.0.0, SVG Export Plug-In . SVG Version: 6.00 Build 0)  -->
<!DOCTYPE svg PUBLIC "-//W3C//DTD SVG 1.1//EN" "http://www.w3.org/Graphics/SVG/1.1/DTD/svg11.dtd">
<svg version="1.1" id="Layer_1" xmlns="http://www.w3.org/2000/svg" xmlns:xlink="http://www.w3.org/1999/xlink" x="0px" y="0px"
	 width="18px" height="15px" viewBox="-1 0 18 15" enable-background="new -1 0 18 15" xml:space="preserve">
<path fill="#CBCBCB" d="M8.133,0.333c-0.4,0-0.667,0.267-0.667,0.534L5.733,4.6L0.666,5.267C0.266,5.267,0,5.667,0,5.933
	s0.133,0.4,0.267,0.533C0.399,6.6,3.6,9.4,3.6,9.4l-0.934,4.666c0,0.133,0,0.133,0,0.266C2.533,14.732,2.933,15,3.333,15
	c0.133,0,0.267,0,0.4-0.133l4.4-2.4c0,0,4.268,2.266,4.4,2.4C12.666,15,12.799,15,12.934,15c0.4,0,0.666-0.268,0.666-0.668
	c0-0.133,0-0.133,0-0.266S12.533,9.4,12.533,9.4s2.934-2.8,3.066-2.934c0.268,0,0.4-0.267,0.4-0.533c0-0.4-0.268-0.667-0.666-0.667
	L10.533,4.6L8.799,0.867C8.666,0.6,8.399,0.333,8.133,0.333z"/>
</svg>
