<?xml version="1.0" encoding="utf-8"?>
<!-- Generator: Adobe Illustrator 23.0.5, SVG Export Plug-In . SVG Version: 6.00 Build 0)  -->
<svg version="1.1" id="Layer_1" xmlns="http://www.w3.org/2000/svg" xmlns:xlink="http://www.w3.org/1999/xlink" x="0px" y="0px"
	 viewBox="0 0 90 90" style="enable-background:new 0 0 90 90;" xml:space="preserve">
<style type="text/css">
	.st0{fill:none;stroke:#B53234;stroke-width:2;stroke-miterlimit:10;}
	.st1{fill:none;stroke:#B53234;stroke-width:1.5;stroke-miterlimit:10;}
	.st2{fill:none;stroke:#B53234;stroke-width:2;stroke-linecap:round;stroke-miterlimit:10;}
</style>
<g>
	<g>
		<circle class="st0" cx="17.4" cy="79.9" r="8.4"/>
		<path class="st1" d="M16.4,74.4c3.6,0,6.5,2.9,6.5,6.5"/>
		<path class="st2" d="M19.7,61.8c7.4,0,13.4,6,13.4,13.4"/>
		<path class="st2" d="M26.5,53.2c7.4,0,13.4,6,13.4,13.4"/>
		<path class="st2" d="M33.3,44.6c7.4,0,13.4,6,13.4,13.4"/>
		<path class="st2" d="M46.8,27.3c7.4,0,13.4,6,13.4,13.4"/>
		<path class="st2" d="M53.6,18.7c7.4,0,13.4,6,13.4,13.4"/>
		<path class="st2" d="M60.4,10.1c7.4,0,13.4,6,13.4,13.4"/>
		<path class="st2" d="M40.1,35.9c7.4,0,13.4,6,13.4,13.4"/>
		<path class="st0" d="M24.3,84.6l54.2-68.4l0.1-0.1c1.5-1.5,2.5-3.6,2.5-5.9s-0.9-4.4-2.5-5.9s-3.6-2.6-6-2.6
			c-2.3,0-4.4,0.9-5.9,2.5l-0.1,0.1L11.9,73.6"/>
	</g>
</g>
</svg>
