<?xml version="1.0" encoding="utf-8"?>
<!-- Generator: Adobe Illustrator 23.0.5, SVG Export Plug-In . SVG Version: 6.00 Build 0)  -->
<svg version="1.1" id="Layer_1" xmlns="http://www.w3.org/2000/svg" xmlns:xlink="http://www.w3.org/1999/xlink" x="0px" y="0px"
	 viewBox="0 0 90 90" style="enable-background:new 0 0 90 90;" xml:space="preserve">
<style type="text/css">
	.st0{fill:none;stroke:#B53234;stroke-width:2;stroke-miterlimit:10;}
	.st1{fill:#B53234;}
</style>
<g>
	<path class="st0" d="M47.8,8c7.5,9.9,32.1,44,40.5,72.1c0.5,1.6-0.7,3.2-2.3,3.2H4.6c-1.9,0-3.3-1.6-3-3.5
		c1.5-9.3,8.5-36.5,41.5-72.1C44.4,6.3,46.6,6.5,47.8,8z"/>
	<circle class="st1" cx="9.3" cy="75.8" r="0.8"/>
	<circle class="st1" cx="21.4" cy="60" r="0.8"/>
	<circle class="st1" cx="58.5" cy="67.7" r="0.5"/>
	<circle class="st1" cx="50.6" cy="73.6" r="0.5"/>
	<circle class="st1" cx="28.4" cy="78.6" r="0.5"/>
	<circle class="st1" cx="49.9" cy="43.2" r="1.2"/>
	<circle class="st1" cx="36.1" cy="34.9" r="1.2"/>
	<circle class="st1" cx="54.6" cy="28.8" r="1.2"/>
	<circle class="st1" cx="43.1" cy="79.1" r="1.2"/>
	<circle class="st1" cx="50.6" cy="63.3" r="0.5"/>
	<circle class="st1" cx="35.1" cy="60" r="0.5"/>
	<circle class="st1" cx="30.8" cy="70" r="0.5"/>
	<circle class="st1" cx="28.1" cy="36.9" r="0.5"/>
	<circle class="st1" cx="22.6" cy="75.8" r="0.8"/>
	<circle class="st1" cx="37.3" cy="78.9" r="0.8"/>
	<circle class="st1" cx="22.6" cy="64" r="0.8"/>
	<circle class="st1" cx="40.1" cy="25.1" r="0.8"/>
	<circle class="st1" cx="47.5" cy="20" r="0.8"/>
	<circle class="st1" cx="45" cy="13" r="0.8"/>
	<circle class="st1" cx="69.2" cy="64" r="0.8"/>
	<circle class="st1" cx="65.7" cy="46.5" r="0.8"/>
	<circle class="st1" cx="40.9" cy="70.3" r="0.8"/>
	<circle class="st1" cx="39.4" cy="18.5" r="0.8"/>
	<circle class="st1" cx="65.7" cy="77.8" r="0.8"/>
	<circle class="st1" cx="59.8" cy="60.7" r="0.8"/>
	<circle class="st1" cx="27.6" cy="46.5" r="0.8"/>
	<circle class="st1" cx="35.6" cy="42" r="0.8"/>
	<circle class="st1" cx="13.7" cy="65.9" r="1.9"/>
	<circle class="st1" cx="48.8" cy="25.8" r="1.9"/>
	<circle class="st1" cx="40.8" cy="50.2" r="1.9"/>
	<circle class="st1" cx="24.1" cy="41.3" r="1.9"/>
	<circle class="st1" cx="28.4" cy="78.9" r="1.9"/>
	<circle class="st1" cx="53.8" cy="37.2" r="1.9"/>
	<circle class="st1" cx="40.1" cy="25.1" r="1.9"/>
	<circle class="st1" cx="50.4" cy="52.6" r="1.9"/>
	<circle class="st1" cx="35.6" cy="42" r="1.9"/>
	<circle class="st1" cx="58.1" cy="67.3" r="1.9"/>
	<circle class="st1" cx="64" cy="60.5" r="1.1"/>
	<circle class="st1" cx="75.9" cy="63.2" r="1.9"/>
	<circle class="st1" cx="21.4" cy="48.4" r="1.9"/>
	<circle class="st1" cx="78.1" cy="72.2" r="1.9"/>
	<circle class="st1" cx="69.7" cy="72.2" r="1.9"/>
	<circle class="st1" cx="53.9" cy="78.9" r="1.9"/>
	<circle class="st1" cx="30.4" cy="70.3" r="1.9"/>
	<circle class="st1" cx="40.9" cy="62.6" r="1.9"/>
	<circle class="st1" cx="22.6" cy="64" r="1.9"/>
	<circle class="st1" cx="56.9" cy="51.4" r="1.2"/>
	<circle class="st1" cx="59.2" cy="76.5" r="1.2"/>
	<circle class="st1" cx="42" cy="41.3" r="1.2"/>
	<circle class="st1" cx="53.8" cy="57.8" r="1.2"/>
	<circle class="st1" cx="28.1" cy="36.9" r="1.2"/>
	<circle class="st1" cx="62.1" cy="69.3" r="1.2"/>
	<circle class="st1" cx="51.1" cy="62.8" r="1.2"/>
	<circle class="st1" cx="48.3" cy="67.7" r="1.2"/>
	<circle class="st1" cx="60.4" cy="34.9" r="1.2"/>
	<circle class="st1" cx="50.6" cy="73.6" r="1.2"/>
	<circle class="st1" cx="34.7" cy="60" r="1.2"/>
	<circle class="st1" cx="58.1" cy="42" r="1.2"/>
	<circle class="st1" cx="45" cy="13" r="1.2"/>
	<circle class="st1" cx="41.7" cy="34.5" r="1.2"/>
	<circle class="st1" cx="29.2" cy="54.3" r="1.2"/>
	<circle class="st1" cx="16.7" cy="57.2" r="1.2"/>
	<circle class="st1" cx="45.6" cy="57.8" r="1.2"/>
	<circle class="st1" cx="15.5" cy="77.7" r="1.2"/>
	<circle class="st1" cx="33.5" cy="47.7" r="1.2"/>
	<circle class="st1" cx="62.6" cy="54.3" r="1.2"/>
	<circle class="st1" cx="60.5" cy="46.5" r="1.2"/>
	<circle class="st1" cx="32.5" cy="28.8" r="1.2"/>
	<circle class="st1" cx="71.1" cy="56" r="1.2"/>
	<circle class="st1" cx="74" cy="78.2" r="1.2"/>
</g>
</svg>
