<?xml version="1.0" encoding="utf-8"?>
<!-- Generator: Adobe Illustrator 23.0.5, SVG Export Plug-In . SVG Version: 6.00 Build 0)  -->
<svg version="1.1" id="Layer_1" xmlns="http://www.w3.org/2000/svg" xmlns:xlink="http://www.w3.org/1999/xlink" x="0px" y="0px"
	 viewBox="0 0 75 75" style="enable-background:new 0 0 75 75;" xml:space="preserve">
<style type="text/css">
	.st0{fill:none;stroke:#C13030;stroke-width:2;stroke-miterlimit:10;}
	.st1{fill:none;stroke:#C13030;stroke-width:2;stroke-linecap:round;stroke-miterlimit:10;}
</style>
<g>
	<polygon class="st0" points="11.5,66.3 1.5,46.5 11.1,41.7 21.6,61.4 	"/>
	<path class="st1" d="M12.7,44.8l12.2-7c1.8-1,3.9-1.2,5.9-0.6l19.4,6.1c1.2,0.4,2.2,1.4,2.4,2.7c0.2,1.2-0.1,2.7-1.9,3.8
		c-0.8,0.5-1.7,0.6-2.6,0.3l-11.6-3.2"/>
	<path class="st1" d="M19.8,58.1l2.5-1.3c0.5-0.2,1-0.3,1.5-0.1l19,5.6c1.9,0.5,3.9,0.3,5.5-0.7l23.1-14c1.5-0.9,2.4-2.8,1.9-4.5
		c-0.3-1.2-1.2-2.2-3.2-2.3c-1.3-0.1-2.5,0.3-3.6,1c-5.8,3.5-10.8,6.6-10.8,6.6"/>
	<path class="st1" d="M67.8,22.7c0,4.8-2.8,9.2-6.9,11.7c-3.9,2.4-9,2-12.9,0c-2-1.1-3.7-2.8-5-4.6c-1.4-1.9-2-4.2-2.1-6.5
		c-0.4-4.9,2.3-9.1,6-11.9c4.3-3.2,10.7-3.2,15,0"/>
	<polyline class="st1" points="48,19.3 55.6,26.9 73.5,8.7 	"/>
</g>
</svg>
