<?xml version="1.0" encoding="utf-8"?>
<!-- Generator: Adobe Illustrator 16.0.0, SVG Export Plug-In . SVG Version: 6.00 Build 0)  -->
<!DOCTYPE svg PUBLIC "-//W3C//DTD SVG 1.1//EN" "http://www.w3.org/Graphics/SVG/1.1/DTD/svg11.dtd">
<svg version="1.1" id="Layer_1" xmlns="http://www.w3.org/2000/svg" xmlns:xlink="http://www.w3.org/1999/xlink" x="0px" y="0px"
	 width="16px" height="15px" viewBox="0 -2 12 11" enable-background="new 0 -2 12 11" xml:space="preserve">
<path fill="#666" fill-rule="evenodd" clip-rule="evenodd" d="M6.1-2C5.8-2,5.6-1.8,5.6-1.6L4.3,1.2L0.5,1.7C0.2,1.7,0,2,0,2.2
	c0,0.2,0.1,0.3,0.2,0.4c0.1,0.1,2.5,2.2,2.5,2.2S2,8.3,2,8.3c0,0.1,0,0.1,0,0.2C1.9,8.8,2.2,9,2.5,9c0.1,0,0.2,0,0.3-0.1l3.3-1.8
	c0,0,3.2,1.7,3.3,1.8C9.5,9,9.6,9,9.7,9c0.3,0,0.5-0.2,0.5-0.5c0-0.1,0-0.1,0-0.2c0-0.1-0.8-3.5-0.8-3.5s2.2-2.1,2.3-2.2
	C11.9,2.6,12,2.4,12,2.2c0-0.3-0.2-0.5-0.5-0.5L7.9,1.2L6.6-1.6C6.5-1.8,6.3-2,6.1-2z"/>
</svg>
